<svg xmlns="http://www.w3.org/2000/svg" xmlns:xlink="http://www.w3.org/1999/xlink" xmlns:lucid="lucid" width="1760" height="1360"><g transform="translate(0 0)" lucid:page-tab-id="0_0"><path d="M32 37c0-2.76 2.24-5 5-5h838c2.76 0 5 2.24 5 5v38c0 2.76-2.24 5-5 5H37c-2.76 0-5-2.24-5-5z" fill="none"/><use xlink:href="#a" transform="matrix(1,0,0,1,32,32) translate(0 31.11111111111111)"/><use xlink:href="#b" transform="matrix(1,0,0,1,32,32) translate(238.22222222222223 31.11111111111111)"/><path d="M31.33 80H1728" stroke="#999" stroke-width="2" fill="none"/><path d="M1040 37c0-2.76 2.24-5 5-5h678c2.76 0 5 2.24 5 5v38c0 2.76-2.24 5-5 5h-678c-2.76 0-5-2.24-5-5z" fill="none"/><use xlink:href="#c" transform="matrix(1,0,0,1,1040,32) translate(344.3580246913614 28.4444444444444)"/><use xlink:href="#d" transform="matrix(1,0,0,1,1040,32) translate(468.8024691358046 28.4444444444444)"/><use xlink:href="#e" transform="matrix(1,0,0,1,1040,32) translate(493.0617283950636 28.4444444444444)"/><use xlink:href="#f" transform="matrix(1,0,0,1,1040,32) translate(523.9259259259275 28.4444444444444)"/><use xlink:href="#g" transform="matrix(1,0,0,1,1040,32) translate(638.6172839506178 28.4444444444444)"/><path d="M103.34 660h39.76" stroke="#999" stroke-width="2" fill="none"/><path d="M103.34 661h-1.08l.08-1-.03-1h1.04zM158.1 660l-14.26 4.64v-9.28z" fill="#999"/><path d="M161.34 660l-18.5 6v-12zm-16.5 3.26l10.03-3.26-10.03-3.26zM443.34 618.08h-2v-41.75h2zm0-63.35h-2v-115.5h2zM443.34 620.5l-1-1-1 1v-2.42h2zM446.98 438.5h-9.27l4.64-14.26z" fill="#999"/><path d="M448.35 439.5h-12.02l6-18.5zm-9.27-2h6.52l-3.26-10.03z" fill="#999"/><use xlink:href="#h" transform="matrix(1,0,0,1,393.915740740683,554.7263306666661) translate(0 14.4)"/><use xlink:href="#i" transform="matrix(1,0,0,1,393.915740740683,554.7263306666661) translate(49.95 14.4)"/><path d="M443.34 800.76h-2V775.6h2zm0-68.37h-2V701.4h2z" fill="#999"/><path d="M443.34 701.42h-2V699l1 1 1-1zM442.34 815.76l-4.63-14.26H447z" fill="#999"/><path d="M442.34 819l-6-18.5h12zm-3.26-16.5l3.26 10.03 3.26-10.03z" fill="#999"/><use xlink:href="#j" transform="matrix(1,0,0,1,393.94074074068305,732.386037802417) translate(0.005000000000002558 14.4)"/><use xlink:href="#k" transform="matrix(1,0,0,1,393.94074074068305,732.386037802417) translate(21.430000000000007 36)"/><path d="M540.76 1039v2h-33v-2zm-97.42-33.1h-2V941h2zM443.34 941h-2v-1h2zM555.76 1040l-14.26 4.64v-9.28z" fill="#999"/><path d="M559 1040l-18.5 6v-12zm-16.5 3.26l10.03-3.26-10.03-3.26z" fill="#999"/><use xlink:href="#l" transform="matrix(1,0,0,1,376.915740740683,1005.910944472508) translate(6.480000000000004 14.4)"/><use xlink:href="#m" transform="matrix(1,0,0,1,376.915740740683,1005.910944472508) translate(90.43 14.4)"/><use xlink:href="#n" transform="matrix(1,0,0,1,376.915740740683,1005.910944472508) translate(0.0049999999999954525 36)"/><path d="M559.25 361h-35.9v-2h35.9zm101.5 0H643.1v-2h17.66zM523.34 361h-1v-2h1zM675.76 360l-14.26 4.64v-9.28z" fill="#999"/><path d="M679 360l-18.5 6v-12zm-16.5 3.26l10.03-3.26-10.03-3.26z" fill="#999"/><use xlink:href="#o" transform="matrix(1,0,0,1,559.2453703703416,338.4) translate(3.979999999999997 14.4)"/><use xlink:href="#p" transform="matrix(1,0,0,1,559.2453703703416,338.4) translate(0.005000000000002558 36)"/><use xlink:href="#q" transform="matrix(1,0,0,1,559.2453703703416,338.4) translate(49.955000000000005 36)"/><path d="M102.34 660c0 16.57-13.43 30-30 30s-30-13.43-30-30 13.43-30 30-30 30 13.43 30 30z" stroke="#666" stroke-width="2" fill="#a3d977"/><use xlink:href="#r" transform="matrix(1,0,0,1,42.34074074068303,690) translate(11.024999999999999 14.4)"/><path d="M162.34 605c0-2.76 2.24-5 5-5h150c2.76 0 5 2.24 5 5v110c0 2.76-2.24 5-5 5h-150c-2.76 0-5-2.24-5-5z" stroke="#666" stroke-width="2" fill="#fff"/><use xlink:href="#s" transform="matrix(1,0,0,1,162.34074074068303,600) translate(42.05 51.9)"/><use xlink:href="#t" transform="matrix(1,0,0,1,162.34074074068303,600) translate(35.025 73.5)"/><path d="M362.34 305c0-2.76 2.24-5 5-5h150c2.76 0 5 2.24 5 5v110c0 2.76-2.24 5-5 5h-150c-2.76 0-5-2.24-5-5z" stroke="#666" stroke-width="2" fill="#fff"/><use xlink:href="#u" transform="matrix(1,0,0,1,362.34074074068303,300) translate(42.05 51.9)"/><use xlink:href="#v" transform="matrix(1,0,0,1,362.34074074068303,300) translate(33.575 73.5)"/><use xlink:href="#w" transform="matrix(1,0,0,1,362.34074074068303,300) translate(83.525 73.5)"/><path d="M362.34 825c0-2.76 2.24-5 5-5h150c2.76 0 5 2.24 5 5v110c0 2.76-2.24 5-5 5h-150c-2.76 0-5-2.24-5-5z" stroke="#666" stroke-width="2" fill="#fff"/><use xlink:href="#x" transform="matrix(1,0,0,1,362.34074074068303,820) translate(45.025 40.65)"/><use xlink:href="#y" transform="matrix(1,0,0,1,362.34074074068303,820) translate(41 62.25)"/><use xlink:href="#z" transform="matrix(1,0,0,1,362.34074074068303,820) translate(35.099999999999994 83.85000000000001)"/><path d="M402.34 659.75l40-40.25 40 40.25-40 40.25zM560 985c0-2.76 2.24-5 5-5h150c2.76 0 5 2.24 5 5v110c0 2.76-2.24 5-5 5H565c-2.76 0-5-2.24-5-5z" stroke="#666" stroke-width="2" fill="#fff"/><use xlink:href="#A" transform="matrix(1,0,0,1,565,985) translate(8.574999999999989 47.8)"/><use xlink:href="#B" transform="matrix(1,0,0,1,565,985) translate(53.525 69.4)"/><path d="M323.34 660h59.6" stroke="#999" stroke-width="2" fill="none"/><path d="M323.34 661h-1v-2h1zM397.94 660l-14.26 4.64v-9.28z" fill="#999"/><path d="M401.18 660l-18.5 6v-12zm-16.5 3.26L394.7 660l-10.02-3.26zM641 979h-2v-77.4h2zm-99.42-98v-2h41.14v2zM641 980h-2v-1h2zM540.84 884.64L526.58 880l14.26-4.64z" fill="#999"/><path d="M541.84 886l-18.5-6 18.5-6zm-12.03-6l10.04 3.26v-6.52z" fill="#999"/><use xlink:href="#C" transform="matrix(1,0,0,1,582.7203703703415,858.4) translate(6.980000000000004 14.4)"/><use xlink:href="#m" transform="matrix(1,0,0,1,582.7203703703415,858.4) translate(55.980000000000004 14.4)"/><use xlink:href="#D" transform="matrix(1,0,0,1,582.7203703703415,858.4) translate(0.005000000000002558 36)"/><path d="M741.22 1041H721v-2h20.22zm119.54 0h-22.64v-2h22.64zM721 1041h-1v-2h1zM875.76 1040l-14.26 4.64v-9.28z" fill="#999"/><path d="M879 1040l-18.5 6v-12zm-16.5 3.26l10.03-3.26-10.03-3.26z" fill="#999"/><use xlink:href="#E" transform="matrix(1,0,0,1,741.220020874336,1018.4) translate(29.505000000000003 14.4)"/><use xlink:href="#D" transform="matrix(1,0,0,1,741.220020874336,1018.4) translate(0.005000000000002558 36)"/><path d="M880 985c0-2.76 2.24-5 5-5h150c2.76 0 5 2.24 5 5v110c0 2.76-2.24 5-5 5H885c-2.76 0-5-2.24-5-5z" stroke="#666" stroke-width="2" fill="#fff"/><use xlink:href="#F" transform="matrix(1,0,0,1,885,985) translate(9.099999999999994 58.6)"/><use xlink:href="#G" transform="matrix(1,0,0,1,885,985) translate(106.95 58.6)"/><path d="M981.55 881h-16.47l-1.26.2-2 1.46-.82 2.5V979h-2v-94.16l1.1-3.4 2.92-2.13 1.9-.3h16.63zm199.2 0h-102.3v-2h102.3zM961 980h-2v-1h2zM1195.76 880l-14.26 4.64v-9.28z" fill="#999"/><path d="M1199 880l-18.5 6v-12zm-16.5 3.26l10.03-3.26-10.03-3.26z" fill="#999"/><use xlink:href="#H" transform="matrix(1,0,0,1,981.55,858.4) translate(0.005000000000002558 14.4)"/><use xlink:href="#I" transform="matrix(1,0,0,1,981.55,858.4) translate(73.95500000000001 14.4)"/><use xlink:href="#J" transform="matrix(1,0,0,1,981.55,858.4) translate(11.980000000000004 36)"/><path d="M1200 825c0-2.76 2.24-5 5-5h150c2.76 0 5 2.24 5 5v110c0 2.76-2.24 5-5 5h-150c-2.76 0-5-2.24-5-5z" stroke="#666" stroke-width="2" fill="#fff"/><use xlink:href="#K" transform="matrix(1,0,0,1,1205,825) translate(14.5 47.8)"/><use xlink:href="#L" transform="matrix(1,0,0,1,1205,825) translate(101.5 47.8)"/><use xlink:href="#M" transform="matrix(1,0,0,1,1205,825) translate(25.599999999999994 69.4)"/><use xlink:href="#N" transform="matrix(1,0,0,1,1205,825) translate(57.49999999999999 69.4)"/><path d="M1066.58 1041H1041v-2h25.58zm114.18 0h-7.34v-2h7.34zM1041 1041h-1v-2h1zM1195.76 1040l-14.26 4.64v-9.28z" fill="#999"/><path d="M1199 1040l-18.5 6v-12zm-16.5 3.26l10.03-3.26-10.03-3.26z" fill="#999"/><use xlink:href="#O" transform="matrix(1,0,0,1,1066.575,1018.4) translate(0.005000000000002558 14.4)"/><use xlink:href="#P" transform="matrix(1,0,0,1,1066.575,1018.4) translate(83.905 14.4)"/><use xlink:href="#Q" transform="matrix(1,0,0,1,1066.575,1018.4) translate(2.4550000000000054 36)"/><use xlink:href="#R" transform="matrix(1,0,0,1,1066.575,1018.4) translate(70.405 36)"/><path d="M1200 985c0-2.76 2.24-5 5-5h150c2.76 0 5 2.24 5 5v110c0 2.76-2.24 5-5 5h-150c-2.76 0-5-2.24-5-5z" stroke="#666" stroke-width="2" fill="#fff"/><use xlink:href="#K" transform="matrix(1,0,0,1,1205,985) translate(14.524999999999999 37)"/><use xlink:href="#S" transform="matrix(1,0,0,1,1205,985) translate(101.525 37)"/><use xlink:href="#T" transform="matrix(1,0,0,1,1205,985) translate(120.475 37)"/><use xlink:href="#U" transform="matrix(1,0,0,1,1205,985) translate(18.575000000000003 58.6)"/><use xlink:href="#V" transform="matrix(1,0,0,1,1205,985) translate(70.475 58.6)"/><use xlink:href="#W" transform="matrix(1,0,0,1,1205,985) translate(111.425 58.6)"/><use xlink:href="#R" transform="matrix(1,0,0,1,1205,985) translate(58 80.20000000000002)"/><path d="M1361 880h34c2.76 0 5 2.24 5 5v70c0 2.76 2.24 5 5 5h15.76" stroke="#999" stroke-width="2" fill="none"/><path d="M1361 881h-1v-2h1zM1435.76 960l-14.26 4.64v-9.28z" fill="#999"/><path d="M1439 960l-18.5 6v-12zm-16.5 3.26l10.03-3.26-10.03-3.26z" fill="#999"/><path d="M1440 905c0-2.76 2.24-5 5-5h150c2.76 0 5 2.24 5 5v110c0 2.76-2.24 5-5 5h-150c-2.76 0-5-2.24-5-5z" stroke="#666" stroke-width="2" fill="#fff"/><use xlink:href="#X" transform="matrix(1,0,0,1,1445,905) translate(28.549999999999997 47.8)"/><use xlink:href="#Y" transform="matrix(1,0,0,1,1445,905) translate(30.099999999999994 69.4)"/><path d="M1361 1040h34c2.76 0 5-2.24 5-5v-70c0-2.76 2.24-5 5-5h15.76" stroke="#999" stroke-width="2" fill="none"/><path d="M1361 1041h-1v-2h1zM1435.76 960l-14.26 4.64v-9.28z" fill="#999"/><path d="M1439 960l-18.5 6v-12zm-16.5 3.26l10.03-3.26-10.03-3.26z" fill="#999"/><path d="M680 305c0-2.76 2.24-5 5-5h150c2.76 0 5 2.24 5 5v110c0 2.76-2.24 5-5 5H685c-2.76 0-5-2.24-5-5z" stroke="#666" stroke-width="2" fill="#fff"/><use xlink:href="#Z" transform="matrix(1,0,0,1,685,305) translate(37.05 37)"/><use xlink:href="#aa" transform="matrix(1,0,0,1,685,305) translate(15.074999999999996 58.6)"/><use xlink:href="#ab" transform="matrix(1,0,0,1,685,305) translate(89.975 58.6)"/><use xlink:href="#ac" transform="matrix(1,0,0,1,685,305) translate(58.05 80.20000000000002)"/><path d="M1180 305c0-2.76 2.24-5 5-5h150c2.76 0 5 2.24 5 5v110c0 2.76-2.24 5-5 5h-150c-2.76 0-5-2.24-5-5z" stroke="#666" stroke-width="2" fill="#fff"/><g><use xlink:href="#ad" transform="matrix(1,0,0,1,1185,305) translate(28.549999999999997 47.8)"/><use xlink:href="#ae" transform="matrix(1,0,0,1,1185,305) translate(37.074999999999996 69.4)"/></g><path d="M1045.86 361h-39.7v-2h39.7zm114.9 0h-39.05v-2h39.06z" fill="#999"/><path d="M1006.16 361h-1.74l1.16-2h.58zM1175.76 360l-14.26 4.64v-9.28z" fill="#999"/><path d="M1179 360l-18.5 6v-12zm-16.5 3.26l10.03-3.26-10.03-3.26z" fill="#999"/><g><use xlink:href="#af" transform="matrix(1,0,0,1,1045.862862739788,338.3999999999999) translate(2.9550000000000054 14.4)"/><use xlink:href="#ae" transform="matrix(1,0,0,1,1045.862862739788,338.3999999999999) translate(0.005000000000002558 36)"/></g><path d="M760 299v-35c0-2.76-2.24-5-5-5H447.34c-2.76 0-5 2.24-5 5v16.76" stroke="#999" stroke-width="2" fill="none"/><path d="M761 300h-2v-1h2zM442.34 295.76l-4.63-14.26H447z" fill="#999"/><path d="M442.34 299l-6-18.5h12zm-3.26-16.5l3.26 10.03 3.26-10.03z" fill="#999"/><path d="M841 360h74.62" stroke="#999" stroke-width="2" fill="none"/><path d="M841 361h-1v-2h1zM930.6 360l-14.26 4.64v-9.28z" fill="#999"/><path d="M933.84 360l-18.5 6v-12zm-16.5 3.26l10.03-3.26-10.03-3.26zM971 653.56l.2 1.27 1.46 2 2.5.8h539.92l1.9.32 2.9 2.12 1.12 3.4V899h-2V663.8l-.82-2.5-2-1.45-1.26-.2H974.84l-3.4-1.12-2.13-2.9-.3-1.9v-217.2h2zM1521 900h-2v-1h2zM974.64 435.78h-9.28l4.64-14.26z" fill="#999"/><path d="M976 436.78h-12l6-18.5zm-9.26-2h6.52L970 424.75z" fill="#999"/><path d="M1260 421v35c0 2.76-2.24 5-5 5H765c-2.76 0-5-2.24-5-5v-16.76" stroke="#999" stroke-width="2" fill="none"/><path d="M1261 421h-2v-1h2zM764.64 438.5h-9.28l4.64-14.26z" fill="#999"/><path d="M766 439.5h-12l6-18.5zm-9.26-2h6.52L760 427.47z" fill="#999"/><path d="M902.52 304.32c-1.4-2.4-.28-4.32 2.48-4.32h130c2.76 0 3.87 1.93 2.48 4.32l-64.96 111.36c-1.4 2.4-3.65 2.4-5.04 0z" stroke="#666" stroke-width="2" fill="#fff"/><g><use xlink:href="#ag" transform="matrix(1,0,0,1,905,305) translate(5.124999999999993 14.4)"/><use xlink:href="#ah" transform="matrix(1,0,0,1,905,305) translate(35.07499999999999 14.4)"/><use xlink:href="#ai" transform="matrix(1,0,0,1,905,305) translate(19.549999999999997 36)"/><use xlink:href="#aj" transform="matrix(1,0,0,1,905,305) translate(37.5 36)"/></g><path d="M1420 305c0-2.76 2.24-5 5-5h150c2.76 0 5 2.24 5 5v110c0 2.76-2.24 5-5 5h-150c-2.76 0-5-2.24-5-5z" stroke="#666" stroke-width="2" fill="#fff"/><g><use xlink:href="#ak" transform="matrix(1,0,0,1,1425,305) translate(36.574999999999996 47.8)"/><use xlink:href="#al" transform="matrix(1,0,0,1,1425,305) translate(43.55 69.4)"/></g><path d="M863.72 260h-64.54l-1.26.2-2 1.46-.82 2.5V299h-2v-35.16l1.12-3.4 2.9-2.13 1.9-.3h64.7zm396.36-.9l2.13 2.92.3 1.9v16.84h-2v-16.68l-.2-1.26-1.45-2-2.5-.82h-160.93v-2h161.25zM795.1 300h-2v-1h2zM1261.5 295.76l-4.62-14.26h9.27z" fill="#999"/><path d="M1261.5 299l-6-18.5h12.02zm-3.25-16.5l3.26 10.03 3.27-10.03z" fill="#999"/><g><use xlink:href="#am" transform="matrix(1,0,0,1,863.7244770353452,248.2) translate(0.0049999999999954525 14.4)"/><use xlink:href="#an" transform="matrix(1,0,0,1,863.7244770353452,248.2) translate(20.954999999999995 14.4)"/><use xlink:href="#ao" transform="matrix(1,0,0,1,863.7244770353452,248.2) translate(101.855 14.4)"/><use xlink:href="#ap" transform="matrix(1,0,0,1,863.7244770353452,248.2) translate(120.805 14.4)"/><use xlink:href="#aq" transform="matrix(1,0,0,1,863.7244770353452,248.2) translate(150.805 14.4)"/></g><path d="M1341 360h59.76" stroke="#999" stroke-width="2" fill="none"/><path d="M1341 361h-1v-2h1zM1415.76 360l-14.26 4.64v-9.28z" fill="#999"/><path d="M1419 360l-18.5 6v-12zm-16.5 3.26l10.03-3.26-10.03-3.26z" fill="#999"/><defs><path fill="#999" d="M76-208v77h127v40H76V0H24v-248h183v40H76" id="ar"/><path fill="#999" d="M24 0v-248h52v208h133V0H24" id="as"/><path fill="#999" d="M140-251c80 0 125 45 125 126S219 4 139 4C58 4 15-44 15-125s44-126 125-126zm-1 214c52 0 73-35 73-88 0-50-21-86-72-86-52 0-73 35-73 86s22 88 72 88" id="at"/><path fill="#999" d="M275 0h-61l-44-196L126 0H64L0-248h53L97-49l45-199h58l43 199 44-199h52" id="au"/><path fill="#999" d="M67-125c0 53 21 87 73 88 37 1 54-22 65-47l45 17C233-25 199 4 140 4 58 4 20-42 15-125 8-235 124-281 211-232c18 10 29 29 36 50l-46 12c-8-25-30-41-62-41-52 0-71 34-72 86" id="av"/><path fill="#999" d="M186 0v-106H76V0H24v-248h52v99h110v-99h50V0h-50" id="aw"/><path fill="#999" d="M199 0l-22-63H83L61 0H9l90-248h61L250 0h-51zm-33-102l-36-108c-10 38-24 72-36 108h72" id="ax"/><path fill="#999" d="M240-174c0 40-23 61-54 70L253 0h-59l-57-94H76V0H24v-248c93 4 217-23 216 74zM76-134c48-2 112 12 112-38 0-48-66-32-112-35v73" id="ay"/><path fill="#999" d="M136-208V0H84v-208H4v-40h212v40h-80" id="az"/><g id="a"><use transform="matrix(0.09876543209876544,0,0,0.09876543209876544,0,0)" xlink:href="#ar"/><use transform="matrix(0.09876543209876544,0,0,0.09876543209876544,21.62962962962963,0)" xlink:href="#as"/><use transform="matrix(0.09876543209876544,0,0,0.09876543209876544,43.25925925925926,0)" xlink:href="#at"/><use transform="matrix(0.09876543209876544,0,0,0.09876543209876544,70.91358024691358,0)" xlink:href="#au"/><use transform="matrix(0.09876543209876544,0,0,0.09876543209876544,104.39506172839508,0)" xlink:href="#av"/><use transform="matrix(0.09876543209876544,0,0,0.09876543209876544,129.97530864197532,0)" xlink:href="#aw"/><use transform="matrix(0.09876543209876544,0,0,0.09876543209876544,155.55555555555557,0)" xlink:href="#ax"/><use transform="matrix(0.09876543209876544,0,0,0.09876543209876544,181.13580246913583,0)" xlink:href="#ay"/><use transform="matrix(0.09876543209876544,0,0,0.09876543209876544,206.71604938271608,0)" xlink:href="#az"/></g><path fill="#999" d="M67-125c0 54 23 88 75 88 28 0 53-7 68-21v-34h-60v-39h108v91C232-14 192 4 140 4 58 4 20-42 15-125 8-236 126-280 215-234c19 10 29 26 37 47l-47 15c-11-23-29-39-63-39-53 1-75 33-75 86" id="aA"/><path fill="#999" d="M169-182c-1-43-94-46-97-3 18 66 151 10 154 114 3 95-165 93-204 36-6-8-10-19-12-30l50-8c3 46 112 56 116 5-17-69-150-10-154-114-4-87 153-88 188-35 5 8 8 18 10 28" id="aB"/><g id="b"><use transform="matrix(0.09876543209876544,0,0,0.09876543209876544,0,0)" xlink:href="#aA"/><use transform="matrix(0.09876543209876544,0,0,0.09876543209876544,27.654320987654323,0)" xlink:href="#ax"/><use transform="matrix(0.09876543209876544,0,0,0.09876543209876544,53.23456790123457,0)" xlink:href="#aB"/><use transform="matrix(0.09876543209876544,0,0,0.09876543209876544,76.93827160493828,0)" xlink:href="#az"/></g><path fill="#999" d="M212-179c-10-28-35-45-73-45-59 0-87 40-87 99 0 60 29 101 89 101 43 0 62-24 78-52l27 14C228-24 195 4 139 4 59 4 22-46 18-125c-6-104 99-153 187-111 19 9 31 26 39 46" id="aC"/><path fill="#999" d="M141-36C126-15 110 5 73 4 37 3 15-17 15-53c-1-64 63-63 125-63 3-35-9-54-41-54-24 1-41 7-42 31l-33-3c5-37 33-52 76-52 45 0 72 20 72 64v82c-1 20 7 32 28 27v20c-31 9-61-2-59-35zM48-53c0 20 12 33 32 33 41-3 63-29 60-74-43 2-92-5-92 41" id="aD"/><path fill="#999" d="M115-194c55 1 70 41 70 98S169 2 115 4C84 4 66-9 55-30l1 105H24l-1-265h31l2 30c10-21 28-34 59-34zm-8 174c40 0 45-34 45-75s-6-73-45-74c-42 0-51 32-51 76 0 43 10 73 51 73" id="aE"/><path fill="#999" d="M177-190C167-65 218 103 67 71c-23-6-38-20-44-43l32-5c15 47 100 32 89-28v-30C133-14 115 1 83 1 29 1 15-40 15-95c0-56 16-97 71-98 29-1 48 16 59 35 1-10 0-23 2-32h30zM94-22c36 0 50-32 50-73 0-42-14-75-50-75-39 0-46 34-46 75s6 73 46 73" id="aF"/><path fill="#999" d="M100-194c63 0 86 42 84 106H49c0 40 14 67 53 68 26 1 43-12 49-29l28 8c-11 28-37 45-77 45C44 4 14-33 15-96c1-61 26-98 85-98zm52 81c6-60-76-77-97-28-3 7-6 17-6 28h103" id="aG"/><path fill="#999" d="M210-169c-67 3-38 105-44 169h-31v-121c0-29-5-50-35-48C34-165 62-65 56 0H25l-1-190h30c1 10-1 24 2 32 10-44 99-50 107 0 11-21 27-35 58-36 85-2 47 119 55 194h-31v-121c0-29-5-49-35-48" id="aH"/><path fill="#999" d="M24-231v-30h32v30H24zM24 0v-190h32V0H24" id="aI"/><path fill="#999" d="M117-194c89-4 53 116 60 194h-32v-121c0-31-8-49-39-48C34-167 62-67 57 0H25l-1-190h30c1 10-1 24 2 32 11-22 29-35 61-36" id="aJ"/><g id="c"><use transform="matrix(0.06172839506172778,0,0,0.06172839506172778,0,0)" xlink:href="#aC"/><use transform="matrix(0.06172839506172778,0,0,0.06172839506172778,15.987654320987495,0)" xlink:href="#aD"/><use transform="matrix(0.06172839506172778,0,0,0.06172839506172778,28.33333333333305,0)" xlink:href="#aE"/><use transform="matrix(0.06172839506172778,0,0,0.06172839506172778,40.67901234567861,0)" xlink:href="#aF"/><use transform="matrix(0.06172839506172778,0,0,0.06172839506172778,53.024691358024164,0)" xlink:href="#aG"/><use transform="matrix(0.06172839506172778,0,0,0.06172839506172778,65.37037037036973,0)" xlink:href="#aH"/><use transform="matrix(0.06172839506172778,0,0,0.06172839506172778,83.82716049382634,0)" xlink:href="#aI"/><use transform="matrix(0.06172839506172778,0,0,0.06172839506172778,88.70370370370284,0)" xlink:href="#aJ"/><use transform="matrix(0.06172839506172778,0,0,0.06172839506172778,101.0493827160484,0)" xlink:href="#aI"/></g><path fill="#999" d="M32 76v-337h29V76H32" id="aK"/><use transform="matrix(0.06172839506172778,0,0,0.06172839506172778,0,0)" xlink:href="#aK" id="d"/><path fill="#999" d="M27 0v-27h64v-190l-56 39v-29l58-41h29v221h61V0H27" id="aL"/><path fill="#999" d="M155-56V0h-30v-56H8v-25l114-167h33v167h35v25h-35zm-30-156c-27 46-58 90-88 131h88v-131" id="aM"/><g id="e"><use transform="matrix(0.06172839506172778,0,0,0.06172839506172778,0,0)" xlink:href="#aL"/><use transform="matrix(0.06172839506172778,0,0,0.06172839506172778,12.345679012345556,0)" xlink:href="#aM"/></g><path fill="#999" d="M185-189c-5-48-123-54-124 2 14 75 158 14 163 119 3 78-121 87-175 55-17-10-28-26-33-46l33-7c5 56 141 63 141-1 0-78-155-14-162-118-5-82 145-84 179-34 5 7 8 16 11 25" id="aN"/><path fill="#999" d="M59-47c-2 24 18 29 38 22v24C64 9 27 4 27-40v-127H5v-23h24l9-43h21v43h35v23H59v120" id="aO"/><path fill="#999" d="M115-194c53 0 69 39 70 98 0 66-23 100-70 100C84 3 66-7 56-30L54 0H23l1-261h32v101c10-23 28-34 59-34zm-8 174c40 0 45-34 45-75 0-40-5-75-45-74-42 0-51 32-51 76 0 43 10 73 51 73" id="aP"/><path fill="#999" d="M114-163C36-179 61-72 57 0H25l-1-190h30c1 12-1 29 2 39 6-27 23-49 58-41v29" id="aQ"/><g id="f"><use transform="matrix(0.06172839506172778,0,0,0.06172839506172778,0,0)" xlink:href="#aN"/><use transform="matrix(0.06172839506172778,0,0,0.06172839506172778,14.814814814814667,0)" xlink:href="#aG"/><use transform="matrix(0.06172839506172778,0,0,0.06172839506172778,27.160493827160224,0)" xlink:href="#aE"/><use transform="matrix(0.06172839506172778,0,0,0.06172839506172778,39.50617283950578,0)" xlink:href="#aO"/><use transform="matrix(0.06172839506172778,0,0,0.06172839506172778,45.67901234567856,0)" xlink:href="#aG"/><use transform="matrix(0.06172839506172778,0,0,0.06172839506172778,58.024691358024114,0)" xlink:href="#aH"/><use transform="matrix(0.06172839506172778,0,0,0.06172839506172778,76.48148148148073,0)" xlink:href="#aP"/><use transform="matrix(0.06172839506172778,0,0,0.06172839506172778,88.82716049382628,0)" xlink:href="#aG"/><use transform="matrix(0.06172839506172778,0,0,0.06172839506172778,101.17283950617184,0)" xlink:href="#aQ"/></g><path fill="#999" d="M101-251c82-7 93 87 43 132L82-64C71-53 59-42 53-27h129V0H18c2-99 128-94 128-182 0-28-16-43-45-43s-46 15-49 41l-32-3c6-41 34-60 81-64" id="aR"/><path fill="#999" d="M101-251c68 0 85 55 85 127S166 4 100 4C33 4 14-52 14-124c0-73 17-127 87-127zm-1 229c47 0 54-49 54-102s-4-102-53-102c-51 0-55 48-55 102 0 53 5 102 54 102" id="aS"/><path fill="#999" d="M134-131c28 9 52 24 51 62-1 50-34 73-85 73S17-19 16-69c0-36 21-54 49-61-75-25-45-126 34-121 46 3 78 18 79 63 0 33-17 51-44 57zm-34-11c31 1 46-15 46-44 0-28-17-43-47-42-29 0-46 13-45 42 1 28 16 44 46 44zm1 122c35 0 51-18 51-52 0-30-18-46-53-46-33 0-51 17-51 47 0 34 19 51 53 51" id="aT"/><g id="g"><use transform="matrix(0.06172839506172778,0,0,0.06172839506172778,0,0)" xlink:href="#aR"/><use transform="matrix(0.06172839506172778,0,0,0.06172839506172778,12.345679012345556,0)" xlink:href="#aS"/><use transform="matrix(0.06172839506172778,0,0,0.06172839506172778,24.691358024691112,0)" xlink:href="#aL"/><use transform="matrix(0.06172839506172778,0,0,0.06172839506172778,37.03703703703667,0)" xlink:href="#aT"/></g><path fill="#333" d="M240 0l2-218c-23 76-54 145-80 218h-23L58-218 59 0H30v-248h44l77 211c21-75 51-140 76-211h43V0h-30" id="aU"/><path fill="#333" d="M100-194c63 0 86 42 84 106H49c0 40 14 67 53 68 26 1 43-12 49-29l28 8c-11 28-37 45-77 45C44 4 14-33 15-96c1-61 26-98 85-98zm52 81c6-60-76-77-97-28-3 7-6 17-6 28h103" id="aV"/><path fill="#333" d="M117-194c89-4 53 116 60 194h-32v-121c0-31-8-49-39-48C34-167 62-67 57 0H25l-1-190h30c1 10-1 24 2 32 11-22 29-35 61-36" id="aW"/><path fill="#333" d="M84 4C-5 8 30-112 23-190h32v120c0 31 7 50 39 49 72-2 45-101 50-169h31l1 190h-30c-1-10 1-25-2-33-11 22-28 36-60 37" id="aX"/><g id="h"><use transform="matrix(0.05,0,0,0.05,0,0)" xlink:href="#aU"/><use transform="matrix(0.05,0,0,0.05,14.950000000000001,0)" xlink:href="#aV"/><use transform="matrix(0.05,0,0,0.05,24.950000000000003,0)" xlink:href="#aW"/><use transform="matrix(0.05,0,0,0.05,34.95,0)" xlink:href="#aX"/></g><path fill="#333" d="M24-231v-30h32v30H24zM24 0v-190h32V0H24" id="aY"/><path fill="#333" d="M9 0v-24l116-142H16v-24h144v24L44-24h123V0H9" id="aZ"/><g id="i"><use transform="matrix(0.05,0,0,0.05,0,0)" xlink:href="#aY"/><use transform="matrix(0.05,0,0,0.05,3.95,0)" xlink:href="#aW"/><use transform="matrix(0.05,0,0,0.05,13.949999999999998,0)" xlink:href="#aZ"/><use transform="matrix(0.05,0,0,0.05,22.95,0)" xlink:href="#aY"/><use transform="matrix(0.05,0,0,0.05,26.899999999999995,0)" xlink:href="#aV"/><use transform="matrix(0.05,0,0,0.05,36.9,0)" xlink:href="#aW"/></g><path fill="#333" d="M233-177c-1 41-23 64-60 70L243 0h-38l-65-103H63V0H30v-248c88 3 205-21 203 71zM63-129c60-2 137 13 137-47 0-61-80-42-137-45v92" id="ba"/><path fill="#333" d="M135-143c-3-34-86-38-87 0 15 53 115 12 119 90S17 21 10-45l28-5c4 36 97 45 98 0-10-56-113-15-118-90-4-57 82-63 122-42 12 7 21 19 24 35" id="bb"/><path fill="#333" d="M114-163C36-179 61-72 57 0H25l-1-190h30c1 12-1 29 2 39 6-27 23-49 58-41v29" id="bc"/><path fill="#333" d="M108 0H70L1-190h34L89-25l56-165h34" id="bd"/><path fill="#333" d="M177-190C167-65 218 103 67 71c-23-6-38-20-44-43l32-5c15 47 100 32 89-28v-30C133-14 115 1 83 1 29 1 15-40 15-95c0-56 16-97 71-98 29-1 48 16 59 35 1-10 0-23 2-32h30zM94-22c36 0 50-32 50-73 0-42-14-75-50-75-39 0-46 34-46 75s6 73 46 73" id="be"/><g id="j"><use transform="matrix(0.05,0,0,0.05,0,0)" xlink:href="#ba"/><use transform="matrix(0.05,0,0,0.05,12.950000000000001,0)" xlink:href="#aV"/><use transform="matrix(0.05,0,0,0.05,22.950000000000003,0)" xlink:href="#bb"/><use transform="matrix(0.05,0,0,0.05,31.950000000000003,0)" xlink:href="#aV"/><use transform="matrix(0.05,0,0,0.05,41.95,0)" xlink:href="#bc"/><use transform="matrix(0.05,0,0,0.05,47.900000000000006,0)" xlink:href="#bd"/><use transform="matrix(0.05,0,0,0.05,56.900000000000006,0)" xlink:href="#aV"/><use transform="matrix(0.05,0,0,0.05,66.9,0)" xlink:href="#bc"/><use transform="matrix(0.05,0,0,0.05,72.85000000000001,0)" xlink:href="#aY"/><use transform="matrix(0.05,0,0,0.05,76.80000000000001,0)" xlink:href="#aW"/><use transform="matrix(0.05,0,0,0.05,86.80000000000001,0)" xlink:href="#be"/></g><path fill="#333" d="M210-169c-67 3-38 105-44 169h-31v-121c0-29-5-50-35-48C34-165 62-65 56 0H25l-1-190h30c1 10-1 24 2 32 10-44 99-50 107 0 11-21 27-35 58-36 85-2 47 119 55 194h-31v-121c0-29-5-49-35-48" id="bf"/><path fill="#333" d="M141-36C126-15 110 5 73 4 37 3 15-17 15-53c-1-64 63-63 125-63 3-35-9-54-41-54-24 1-41 7-42 31l-33-3c5-37 33-52 76-52 45 0 72 20 72 64v82c-1 20 7 32 28 27v20c-31 9-61-2-59-35zM48-53c0 20 12 33 32 33 41-3 63-29 60-74-43 2-92-5-92 41" id="bg"/><path fill="#333" d="M143 0L79-87 56-68V0H24v-261h32v163l83-92h37l-77 82L181 0h-38" id="bh"/><g id="k"><use transform="matrix(0.05,0,0,0.05,0,0)" xlink:href="#bf"/><use transform="matrix(0.05,0,0,0.05,14.950000000000001,0)" xlink:href="#bg"/><use transform="matrix(0.05,0,0,0.05,24.950000000000003,0)" xlink:href="#bh"/><use transform="matrix(0.05,0,0,0.05,33.95,0)" xlink:href="#aV"/><use transform="matrix(0.05,0,0,0.05,43.95,0)" xlink:href="#aW"/></g><path fill="#333" d="M140-251c81 0 123 46 123 126C263-46 219 4 140 4 59 4 17-45 17-125s42-126 123-126zm0 227c63 0 89-41 89-101s-29-99-89-99c-61 0-89 39-89 99S79-25 140-24" id="bi"/><path fill="#333" d="M115-194c55 1 70 41 70 98S169 2 115 4C84 4 66-9 55-30l1 105H24l-1-265h31l2 30c10-21 28-34 59-34zm-8 174c40 0 45-34 45-75s-6-73-45-74c-42 0-51 32-51 76 0 43 10 73 51 73" id="bj"/><g id="l"><use transform="matrix(0.05,0,0,0.05,0,0)" xlink:href="#bi"/><use transform="matrix(0.05,0,0,0.05,14,0)" xlink:href="#bj"/><use transform="matrix(0.05,0,0,0.05,24,0)" xlink:href="#bd"/><use transform="matrix(0.05,0,0,0.05,33,0)" xlink:href="#bc"/><use transform="matrix(0.05,0,0,0.05,38.95,0)" xlink:href="#bg"/><use transform="matrix(0.05,0,0,0.05,48.95,0)" xlink:href="#be"/><use transform="matrix(0.05,0,0,0.05,58.95,0)" xlink:href="#aV"/><use transform="matrix(0.05,0,0,0.05,68.95,0)" xlink:href="#aW"/></g><path fill="#333" d="M59-47c-2 24 18 29 38 22v24C64 9 27 4 27-40v-127H5v-23h24l9-43h21v43h35v23H59v120" id="bk"/><path fill="#333" d="M101-234c-31-9-42 10-38 44h38v23H63V0H32v-167H5v-23h27c-7-52 17-82 69-68v24" id="bl"/><path fill="#333" d="M24 0v-261h32V0H24" id="bm"/><g id="m"><use transform="matrix(0.05,0,0,0.05,0,0)" xlink:href="#bk"/><use transform="matrix(0.05,0,0,0.05,5,0)" xlink:href="#bg"/><use transform="matrix(0.05,0,0,0.05,15,0)" xlink:href="#bl"/><use transform="matrix(0.05,0,0,0.05,20,0)" xlink:href="#aV"/><use transform="matrix(0.05,0,0,0.05,30,0)" xlink:href="#bm"/></g><path fill="#333" d="M115-194c53 0 69 39 70 98 0 66-23 100-70 100C84 3 66-7 56-30L54 0H23l1-261h32v101c10-23 28-34 59-34zm-8 174c40 0 45-34 45-75 0-40-5-75-45-74-42 0-51 32-51 76 0 43 10 73 51 73" id="bn"/><path fill="#333" d="M96-169c-40 0-48 33-48 73s9 75 48 75c24 0 41-14 43-38l32 2c-6 37-31 61-74 61-59 0-76-41-82-99-10-93 101-131 147-64 4 7 5 14 7 22l-32 3c-4-21-16-35-41-35" id="bo"/><path fill="#333" d="M106-169C34-169 62-67 57 0H25v-261h32l-1 103c12-21 28-36 61-36 89 0 53 116 60 194h-32v-121c2-32-8-49-39-48" id="bp"/><path fill="#333" d="M85-194c31 0 48 13 60 33l-1-100h32l1 261h-30c-2-10 0-23-3-31C134-8 116 4 85 4 32 4 16-35 15-94c0-66 23-100 70-100zm9 24c-40 0-46 34-46 75 0 40 6 74 45 74 42 0 51-32 51-76 0-42-9-74-50-73" id="bq"/><g id="n"><use transform="matrix(0.05,0,0,0.05,0,0)" xlink:href="#bn"/><use transform="matrix(0.05,0,0,0.05,10,0)" xlink:href="#aV"/><use transform="matrix(0.05,0,0,0.05,20,0)" xlink:href="#bb"/><use transform="matrix(0.05,0,0,0.05,29,0)" xlink:href="#bo"/><use transform="matrix(0.05,0,0,0.05,38,0)" xlink:href="#bp"/><use transform="matrix(0.05,0,0,0.05,48,0)" xlink:href="#aY"/><use transform="matrix(0.05,0,0,0.05,51.95,0)" xlink:href="#bh"/><use transform="matrix(0.05,0,0,0.05,60.95,0)" xlink:href="#bn"/><use transform="matrix(0.05,0,0,0.05,70.95,0)" xlink:href="#bg"/><use transform="matrix(0.05,0,0,0.05,80.95,0)" xlink:href="#bg"/><use transform="matrix(0.05,0,0,0.05,90.95,0)" xlink:href="#bc"/><use transform="matrix(0.05,0,0,0.05,96.9,0)" xlink:href="#bp"/><use transform="matrix(0.05,0,0,0.05,106.9,0)" xlink:href="#aV"/><use transform="matrix(0.05,0,0,0.05,116.9,0)" xlink:href="#aY"/><use transform="matrix(0.05,0,0,0.05,120.85000000000001,0)" xlink:href="#bq"/></g><path fill="#333" d="M185-189c-5-48-123-54-124 2 14 75 158 14 163 119 3 78-121 87-175 55-17-10-28-26-33-46l33-7c5 56 141 63 141-1 0-78-155-14-162-118-5-82 145-84 179-34 5 7 8 16 11 25" id="br"/><g id="o"><use transform="matrix(0.05,0,0,0.05,0,0)" xlink:href="#br"/><use transform="matrix(0.05,0,0,0.05,12,0)" xlink:href="#aV"/><use transform="matrix(0.05,0,0,0.05,22,0)" xlink:href="#bm"/><use transform="matrix(0.05,0,0,0.05,25.950000000000003,0)" xlink:href="#aV"/><use transform="matrix(0.05,0,0,0.05,35.95,0)" xlink:href="#bo"/><use transform="matrix(0.05,0,0,0.05,44.95,0)" xlink:href="#bk"/><use transform="matrix(0.05,0,0,0.05,49.95,0)" xlink:href="#aV"/><use transform="matrix(0.05,0,0,0.05,59.95,0)" xlink:href="#aV"/><use transform="matrix(0.05,0,0,0.05,69.95,0)" xlink:href="#bc"/></g><g id="p"><use transform="matrix(0.05,0,0,0.05,0,0)" xlink:href="#bf"/><use transform="matrix(0.05,0,0,0.05,14.950000000000001,0)" xlink:href="#aV"/><use transform="matrix(0.05,0,0,0.05,24.950000000000003,0)" xlink:href="#aW"/><use transform="matrix(0.05,0,0,0.05,34.95,0)" xlink:href="#aX"/></g><g id="q"><use transform="matrix(0.05,0,0,0.05,0,0)" xlink:href="#aY"/><use transform="matrix(0.05,0,0,0.05,3.95,0)" xlink:href="#bk"/><use transform="matrix(0.05,0,0,0.05,8.95,0)" xlink:href="#aV"/><use transform="matrix(0.05,0,0,0.05,18.95,0)" xlink:href="#bf"/></g><g id="r"><use transform="matrix(0.05,0,0,0.05,0,0)" xlink:href="#br"/><use transform="matrix(0.05,0,0,0.05,12,0)" xlink:href="#bk"/><use transform="matrix(0.05,0,0,0.05,17,0)" xlink:href="#bg"/><use transform="matrix(0.05,0,0,0.05,27,0)" xlink:href="#bc"/><use transform="matrix(0.05,0,0,0.05,32.95,0)" xlink:href="#bk"/></g><g id="s"><use transform="matrix(0.05,0,0,0.05,0,0)" xlink:href="#bi"/><use transform="matrix(0.05,0,0,0.05,14,0)" xlink:href="#bd"/><use transform="matrix(0.05,0,0,0.05,23,0)" xlink:href="#aV"/><use transform="matrix(0.05,0,0,0.05,33,0)" xlink:href="#bc"/><use transform="matrix(0.05,0,0,0.05,38.95,0)" xlink:href="#aZ"/><use transform="matrix(0.05,0,0,0.05,47.95,0)" xlink:href="#aY"/><use transform="matrix(0.05,0,0,0.05,51.900000000000006,0)" xlink:href="#bo"/><use transform="matrix(0.05,0,0,0.05,60.900000000000006,0)" xlink:href="#bp"/><use transform="matrix(0.05,0,0,0.05,70.9,0)" xlink:href="#bk"/></g><path fill="#333" d="M100-194c62-1 85 37 85 99 1 63-27 99-86 99S16-35 15-95c0-66 28-99 85-99zM99-20c44 1 53-31 53-75 0-43-8-75-51-75s-53 32-53 75 10 74 51 75" id="bs"/><g id="t"><use transform="matrix(0.05,0,0,0.05,0,0)" xlink:href="#bp"/><use transform="matrix(0.05,0,0,0.05,10,0)" xlink:href="#bs"/><use transform="matrix(0.05,0,0,0.05,20,0)" xlink:href="#bs"/><use transform="matrix(0.05,0,0,0.05,30,0)" xlink:href="#bl"/><use transform="matrix(0.05,0,0,0.05,35,0)" xlink:href="#bq"/><use transform="matrix(0.05,0,0,0.05,45,0)" xlink:href="#bf"/><use transform="matrix(0.05,0,0,0.05,59.95,0)" xlink:href="#aV"/><use transform="matrix(0.05,0,0,0.05,69.95,0)" xlink:href="#aW"/><use transform="matrix(0.05,0,0,0.05,79.95,0)" xlink:href="#aX"/></g><g id="u"><use transform="matrix(0.05,0,0,0.05,0,0)" xlink:href="#bi"/><use transform="matrix(0.05,0,0,0.05,14,0)" xlink:href="#bd"/><use transform="matrix(0.05,0,0,0.05,23,0)" xlink:href="#aV"/><use transform="matrix(0.05,0,0,0.05,33,0)" xlink:href="#bc"/><use transform="matrix(0.05,0,0,0.05,38.95,0)" xlink:href="#aZ"/><use transform="matrix(0.05,0,0,0.05,47.95,0)" xlink:href="#aY"/><use transform="matrix(0.05,0,0,0.05,51.900000000000006,0)" xlink:href="#bo"/><use transform="matrix(0.05,0,0,0.05,60.900000000000006,0)" xlink:href="#bp"/><use transform="matrix(0.05,0,0,0.05,70.9,0)" xlink:href="#bk"/></g><g id="v"><use transform="matrix(0.05,0,0,0.05,0,0)" xlink:href="#bf"/><use transform="matrix(0.05,0,0,0.05,14.950000000000001,0)" xlink:href="#aV"/><use transform="matrix(0.05,0,0,0.05,24.950000000000003,0)" xlink:href="#aW"/><use transform="matrix(0.05,0,0,0.05,34.95,0)" xlink:href="#aX"/></g><g id="w"><use transform="matrix(0.05,0,0,0.05,0,0)" xlink:href="#aY"/><use transform="matrix(0.05,0,0,0.05,3.95,0)" xlink:href="#bk"/><use transform="matrix(0.05,0,0,0.05,8.95,0)" xlink:href="#aV"/><use transform="matrix(0.05,0,0,0.05,18.95,0)" xlink:href="#bf"/><use transform="matrix(0.05,0,0,0.05,33.9,0)" xlink:href="#bb"/></g><path fill="#333" d="M33 0v-248h34V0H33" id="bt"/><g id="x"><use transform="matrix(0.05,0,0,0.05,0,0)" xlink:href="#bt"/><use transform="matrix(0.05,0,0,0.05,5,0)" xlink:href="#aW"/><use transform="matrix(0.05,0,0,0.05,15,0)" xlink:href="#bd"/><use transform="matrix(0.05,0,0,0.05,24,0)" xlink:href="#bs"/><use transform="matrix(0.05,0,0,0.05,34,0)" xlink:href="#aV"/><use transform="matrix(0.05,0,0,0.05,44,0)" xlink:href="#bc"/><use transform="matrix(0.05,0,0,0.05,49.95,0)" xlink:href="#aV"/><use transform="matrix(0.05,0,0,0.05,59.95,0)" xlink:href="#aW"/></g><g id="y"><use transform="matrix(0.05,0,0,0.05,0,0)" xlink:href="#be"/><use transform="matrix(0.05,0,0,0.05,10,0)" xlink:href="#aV"/><use transform="matrix(0.05,0,0,0.05,20,0)" xlink:href="#be"/><use transform="matrix(0.05,0,0,0.05,30,0)" xlink:href="#aV"/><use transform="matrix(0.05,0,0,0.05,40,0)" xlink:href="#bd"/><use transform="matrix(0.05,0,0,0.05,49,0)" xlink:href="#aV"/><use transform="matrix(0.05,0,0,0.05,59,0)" xlink:href="#aW"/><use transform="matrix(0.05,0,0,0.05,69,0)" xlink:href="#bb"/></g><g id="z"><use transform="matrix(0.05,0,0,0.05,0,0)" xlink:href="#bc"/><use transform="matrix(0.05,0,0,0.05,5.95,0)" xlink:href="#aV"/><use transform="matrix(0.05,0,0,0.05,15.949999999999998,0)" xlink:href="#bb"/><use transform="matrix(0.05,0,0,0.05,24.95,0)" xlink:href="#aV"/><use transform="matrix(0.05,0,0,0.05,34.95,0)" xlink:href="#bc"/><use transform="matrix(0.05,0,0,0.05,40.900000000000006,0)" xlink:href="#bd"/><use transform="matrix(0.05,0,0,0.05,49.900000000000006,0)" xlink:href="#aV"/><use transform="matrix(0.05,0,0,0.05,59.900000000000006,0)" xlink:href="#bc"/><use transform="matrix(0.05,0,0,0.05,65.85000000000001,0)" xlink:href="#aY"/><use transform="matrix(0.05,0,0,0.05,69.80000000000001,0)" xlink:href="#aW"/><use transform="matrix(0.05,0,0,0.05,79.80000000000001,0)" xlink:href="#be"/></g><path fill="#333" d="M160-131c35 5 61 23 61 61C221 17 115-2 30 0v-248c76 3 177-17 177 60 0 33-19 50-47 57zm-97-11c50-1 110 9 110-42 0-47-63-36-110-37v79zm0 115c55-2 124 14 124-45 0-56-70-42-124-44v89" id="bu"/><g id="A"><use transform="matrix(0.05,0,0,0.05,0,0)" xlink:href="#bu"/><use transform="matrix(0.05,0,0,0.05,12,0)" xlink:href="#aV"/><use transform="matrix(0.05,0,0,0.05,22,0)" xlink:href="#bb"/><use transform="matrix(0.05,0,0,0.05,31,0)" xlink:href="#bo"/><use transform="matrix(0.05,0,0,0.05,40,0)" xlink:href="#bp"/><use transform="matrix(0.05,0,0,0.05,50,0)" xlink:href="#aY"/><use transform="matrix(0.05,0,0,0.05,53.95,0)" xlink:href="#bh"/><use transform="matrix(0.05,0,0,0.05,62.95,0)" xlink:href="#bn"/><use transform="matrix(0.05,0,0,0.05,72.95,0)" xlink:href="#bg"/><use transform="matrix(0.05,0,0,0.05,82.95,0)" xlink:href="#bg"/><use transform="matrix(0.05,0,0,0.05,92.95,0)" xlink:href="#bc"/><use transform="matrix(0.05,0,0,0.05,98.9,0)" xlink:href="#bp"/><use transform="matrix(0.05,0,0,0.05,108.9,0)" xlink:href="#aV"/><use transform="matrix(0.05,0,0,0.05,118.9,0)" xlink:href="#aY"/><use transform="matrix(0.05,0,0,0.05,122.85000000000001,0)" xlink:href="#bq"/></g><g id="B"><use transform="matrix(0.05,0,0,0.05,0,0)" xlink:href="#bk"/><use transform="matrix(0.05,0,0,0.05,5,0)" xlink:href="#bg"/><use transform="matrix(0.05,0,0,0.05,15,0)" xlink:href="#bl"/><use transform="matrix(0.05,0,0,0.05,20,0)" xlink:href="#aV"/><use transform="matrix(0.05,0,0,0.05,30,0)" xlink:href="#bm"/><use transform="matrix(0.05,0,0,0.05,33.95,0)" xlink:href="#bb"/></g><path fill="#333" d="M143 4C61 4 22-44 18-125c-5-107 100-154 193-111 17 8 29 25 37 43l-32 9c-13-25-37-40-76-40-61 0-88 39-88 99 0 61 29 100 91 101 35 0 62-11 79-27v-45h-74v-28h105v86C228-13 192 4 143 4" id="bv"/><g id="C"><use transform="matrix(0.05,0,0,0.05,0,0)" xlink:href="#bv"/><use transform="matrix(0.05,0,0,0.05,14,0)" xlink:href="#aV"/><use transform="matrix(0.05,0,0,0.05,24,0)" xlink:href="#aV"/><use transform="matrix(0.05,0,0,0.05,34,0)" xlink:href="#aW"/></g><g id="D"><use transform="matrix(0.05,0,0,0.05,0,0)" xlink:href="#bn"/><use transform="matrix(0.05,0,0,0.05,10,0)" xlink:href="#aV"/><use transform="matrix(0.05,0,0,0.05,20,0)" xlink:href="#bb"/><use transform="matrix(0.05,0,0,0.05,29,0)" xlink:href="#bo"/><use transform="matrix(0.05,0,0,0.05,38,0)" xlink:href="#bp"/><use transform="matrix(0.05,0,0,0.05,48,0)" xlink:href="#aY"/><use transform="matrix(0.05,0,0,0.05,51.95,0)" xlink:href="#bh"/><use transform="matrix(0.05,0,0,0.05,60.95,0)" xlink:href="#bn"/><use transform="matrix(0.05,0,0,0.05,70.95,0)" xlink:href="#bg"/><use transform="matrix(0.05,0,0,0.05,80.95,0)" xlink:href="#bg"/><use transform="matrix(0.05,0,0,0.05,90.95,0)" xlink:href="#bc"/></g><path fill="#333" d="M127-220V0H93v-220H8v-28h204v28h-85" id="bw"/><g id="E"><use transform="matrix(0.05,0,0,0.05,0,0)" xlink:href="#bw"/><use transform="matrix(0.05,0,0,0.05,8.950000000000001,0)" xlink:href="#bg"/><use transform="matrix(0.05,0,0,0.05,18.950000000000003,0)" xlink:href="#bl"/><use transform="matrix(0.05,0,0,0.05,23.950000000000003,0)" xlink:href="#aV"/><use transform="matrix(0.05,0,0,0.05,33.95,0)" xlink:href="#bm"/></g><g id="F"><use transform="matrix(0.05,0,0,0.05,0,0)" xlink:href="#ba"/><use transform="matrix(0.05,0,0,0.05,12.950000000000001,0)" xlink:href="#aV"/><use transform="matrix(0.05,0,0,0.05,22.950000000000003,0)" xlink:href="#bb"/><use transform="matrix(0.05,0,0,0.05,31.950000000000003,0)" xlink:href="#aV"/><use transform="matrix(0.05,0,0,0.05,41.95,0)" xlink:href="#bc"/><use transform="matrix(0.05,0,0,0.05,47.900000000000006,0)" xlink:href="#bd"/><use transform="matrix(0.05,0,0,0.05,56.900000000000006,0)" xlink:href="#aV"/><use transform="matrix(0.05,0,0,0.05,66.9,0)" xlink:href="#bc"/><use transform="matrix(0.05,0,0,0.05,72.85000000000001,0)" xlink:href="#aV"/><use transform="matrix(0.05,0,0,0.05,82.85000000000001,0)" xlink:href="#aW"/></g><g id="G"><use transform="matrix(0.05,0,0,0.05,0,0)" xlink:href="#bk"/><use transform="matrix(0.05,0,0,0.05,5,0)" xlink:href="#bg"/><use transform="matrix(0.05,0,0,0.05,15,0)" xlink:href="#bl"/><use transform="matrix(0.05,0,0,0.05,20,0)" xlink:href="#aV"/><use transform="matrix(0.05,0,0,0.05,30,0)" xlink:href="#bm"/></g><g id="H"><use transform="matrix(0.05,0,0,0.05,0,0)" xlink:href="#bt"/><use transform="matrix(0.05,0,0,0.05,5,0)" xlink:href="#aW"/><use transform="matrix(0.05,0,0,0.05,15,0)" xlink:href="#bm"/><use transform="matrix(0.05,0,0,0.05,18.95,0)" xlink:href="#bs"/><use transform="matrix(0.05,0,0,0.05,28.950000000000003,0)" xlink:href="#be"/><use transform="matrix(0.05,0,0,0.05,38.95,0)" xlink:href="#be"/><use transform="matrix(0.05,0,0,0.05,48.95,0)" xlink:href="#aV"/><use transform="matrix(0.05,0,0,0.05,58.95,0)" xlink:href="#aW"/></g><g id="I"><use transform="matrix(0.05,0,0,0.05,0,0)" xlink:href="#bg"/><use transform="matrix(0.05,0,0,0.05,10,0)" xlink:href="#bm"/><use transform="matrix(0.05,0,0,0.05,13.949999999999998,0)" xlink:href="#bb"/></g><g id="J"><use transform="matrix(0.05,0,0,0.05,0,0)" xlink:href="#bp"/><use transform="matrix(0.05,0,0,0.05,10,0)" xlink:href="#bs"/><use transform="matrix(0.05,0,0,0.05,20,0)" xlink:href="#bk"/><use transform="matrix(0.05,0,0,0.05,25,0)" xlink:href="#aV"/><use transform="matrix(0.05,0,0,0.05,35,0)" xlink:href="#bm"/><use transform="matrix(0.05,0,0,0.05,38.95,0)" xlink:href="#be"/><use transform="matrix(0.05,0,0,0.05,48.95,0)" xlink:href="#bg"/><use transform="matrix(0.05,0,0,0.05,58.95,0)" xlink:href="#bb"/><use transform="matrix(0.05,0,0,0.05,67.95,0)" xlink:href="#bk"/></g><g id="K"><use transform="matrix(0.05,0,0,0.05,0,0)" xlink:href="#bv"/><use transform="matrix(0.05,0,0,0.05,14,0)" xlink:href="#aV"/><use transform="matrix(0.05,0,0,0.05,24,0)" xlink:href="#be"/><use transform="matrix(0.05,0,0,0.05,34,0)" xlink:href="#aV"/><use transform="matrix(0.05,0,0,0.05,44,0)" xlink:href="#bd"/><use transform="matrix(0.05,0,0,0.05,53,0)" xlink:href="#aV"/><use transform="matrix(0.05,0,0,0.05,63,0)" xlink:href="#aW"/><use transform="matrix(0.05,0,0,0.05,73,0)" xlink:href="#bb"/></g><g id="L"><use transform="matrix(0.05,0,0,0.05,0,0)" xlink:href="#be"/><use transform="matrix(0.05,0,0,0.05,10,0)" xlink:href="#bg"/><use transform="matrix(0.05,0,0,0.05,20,0)" xlink:href="#bb"/><use transform="matrix(0.05,0,0,0.05,29,0)" xlink:href="#bk"/></g><path fill="#333" d="M24-231v-30h32v30H24zM-9 49c24 4 33-6 33-30v-209h32V24c2 40-23 58-65 49V49" id="bx"/><g id="M"><use transform="matrix(0.05,0,0,0.05,0,0)" xlink:href="#aZ"/><use transform="matrix(0.05,0,0,0.05,9,0)" xlink:href="#aY"/><use transform="matrix(0.05,0,0,0.05,12.949999999999998,0)" xlink:href="#bx"/><use transform="matrix(0.05,0,0,0.05,16.9,0)" xlink:href="#aW"/></g><g id="N"><use transform="matrix(0.05,0,0,0.05,0,0)" xlink:href="#aY"/><use transform="matrix(0.05,0,0,0.05,3.95,0)" xlink:href="#aW"/><use transform="matrix(0.05,0,0,0.05,13.949999999999998,0)" xlink:href="#be"/><use transform="matrix(0.05,0,0,0.05,23.95,0)" xlink:href="#aV"/><use transform="matrix(0.05,0,0,0.05,33.95,0)" xlink:href="#bd"/><use transform="matrix(0.05,0,0,0.05,42.95,0)" xlink:href="#aX"/><use transform="matrix(0.05,0,0,0.05,52.95,0)" xlink:href="#bm"/><use transform="matrix(0.05,0,0,0.05,56.900000000000006,0)" xlink:href="#bq"/></g><path fill="#333" d="M30-248c118-7 216 8 213 122C240-48 200 0 122 0H30v-248zM63-27c89 8 146-16 146-99s-60-101-146-95v194" id="by"/><g id="O"><use transform="matrix(0.05,0,0,0.05,0,0)" xlink:href="#by"/><use transform="matrix(0.05,0,0,0.05,12.950000000000001,0)" xlink:href="#bs"/><use transform="matrix(0.05,0,0,0.05,22.950000000000003,0)" xlink:href="#bs"/><use transform="matrix(0.05,0,0,0.05,32.95,0)" xlink:href="#bc"/><use transform="matrix(0.05,0,0,0.05,38.900000000000006,0)" xlink:href="#be"/><use transform="matrix(0.05,0,0,0.05,48.900000000000006,0)" xlink:href="#bg"/><use transform="matrix(0.05,0,0,0.05,58.900000000000006,0)" xlink:href="#bg"/><use transform="matrix(0.05,0,0,0.05,68.9,0)" xlink:href="#aW"/></g><g id="P"><use transform="matrix(0.05,0,0,0.05,0,0)" xlink:href="#bg"/><use transform="matrix(0.05,0,0,0.05,10,0)" xlink:href="#bm"/><use transform="matrix(0.05,0,0,0.05,13.949999999999998,0)" xlink:href="#bb"/></g><path fill="#333" d="M206 0h-36l-40-164L89 0H53L-1-190h32L70-26l43-164h34l41 164 42-164h31" id="bz"/><g id="Q"><use transform="matrix(0.05,0,0,0.05,0,0)" xlink:href="#be"/><use transform="matrix(0.05,0,0,0.05,10,0)" xlink:href="#aV"/><use transform="matrix(0.05,0,0,0.05,20,0)" xlink:href="#bz"/><use transform="matrix(0.05,0,0,0.05,32.95,0)" xlink:href="#bs"/><use transform="matrix(0.05,0,0,0.05,42.95,0)" xlink:href="#aW"/><use transform="matrix(0.05,0,0,0.05,52.95,0)" xlink:href="#aV"/></g><g id="R"><use transform="matrix(0.05,0,0,0.05,0,0)" xlink:href="#be"/><use transform="matrix(0.05,0,0,0.05,10,0)" xlink:href="#bg"/><use transform="matrix(0.05,0,0,0.05,20,0)" xlink:href="#bb"/><use transform="matrix(0.05,0,0,0.05,29,0)" xlink:href="#bk"/></g><g id="S"><use transform="matrix(0.05,0,0,0.05,0,0)" xlink:href="#aY"/><use transform="matrix(0.05,0,0,0.05,3.95,0)" xlink:href="#aW"/></g><g id="T"><use transform="matrix(0.05,0,0,0.05,0,0)" xlink:href="#bk"/><use transform="matrix(0.05,0,0,0.05,5,0)" xlink:href="#aV"/></g><g id="U"><use transform="matrix(0.05,0,0,0.05,0,0)" xlink:href="#bd"/><use transform="matrix(0.05,0,0,0.05,9,0)" xlink:href="#aX"/><use transform="matrix(0.05,0,0,0.05,19,0)" xlink:href="#bm"/><use transform="matrix(0.05,0,0,0.05,22.95,0)" xlink:href="#bm"/><use transform="matrix(0.05,0,0,0.05,26.899999999999995,0)" xlink:href="#aV"/><use transform="matrix(0.05,0,0,0.05,36.9,0)" xlink:href="#aW"/></g><g id="V"><use transform="matrix(0.05,0,0,0.05,0,0)" xlink:href="#bq"/><use transform="matrix(0.05,0,0,0.05,10,0)" xlink:href="#bs"/><use transform="matrix(0.05,0,0,0.05,20,0)" xlink:href="#bs"/><use transform="matrix(0.05,0,0,0.05,30,0)" xlink:href="#bc"/></g><g id="W"><use transform="matrix(0.05,0,0,0.05,0,0)" xlink:href="#bq"/><use transform="matrix(0.05,0,0,0.05,10,0)" xlink:href="#aV"/></g><g id="X"><use transform="matrix(0.05,0,0,0.05,0,0)" xlink:href="#bu"/><use transform="matrix(0.05,0,0,0.05,12,0)" xlink:href="#aV"/><use transform="matrix(0.05,0,0,0.05,22,0)" xlink:href="#bd"/><use transform="matrix(0.05,0,0,0.05,31,0)" xlink:href="#aV"/><use transform="matrix(0.05,0,0,0.05,41,0)" xlink:href="#bb"/><use transform="matrix(0.05,0,0,0.05,50,0)" xlink:href="#bk"/><use transform="matrix(0.05,0,0,0.05,55,0)" xlink:href="#aY"/><use transform="matrix(0.05,0,0,0.05,58.95,0)" xlink:href="#be"/><use transform="matrix(0.05,0,0,0.05,68.95,0)" xlink:href="#aY"/><use transform="matrix(0.05,0,0,0.05,72.9,0)" xlink:href="#aW"/><use transform="matrix(0.05,0,0,0.05,82.9,0)" xlink:href="#be"/></g><g id="Y"><use transform="matrix(0.05,0,0,0.05,0,0)" xlink:href="#bc"/><use transform="matrix(0.05,0,0,0.05,5.95,0)" xlink:href="#aV"/><use transform="matrix(0.05,0,0,0.05,15.949999999999998,0)" xlink:href="#bb"/><use transform="matrix(0.05,0,0,0.05,24.95,0)" xlink:href="#aV"/><use transform="matrix(0.05,0,0,0.05,34.95,0)" xlink:href="#bc"/><use transform="matrix(0.05,0,0,0.05,40.900000000000006,0)" xlink:href="#bd"/><use transform="matrix(0.05,0,0,0.05,49.900000000000006,0)" xlink:href="#aV"/><use transform="matrix(0.05,0,0,0.05,59.900000000000006,0)" xlink:href="#bc"/><use transform="matrix(0.05,0,0,0.05,65.85000000000001,0)" xlink:href="#aY"/><use transform="matrix(0.05,0,0,0.05,69.80000000000001,0)" xlink:href="#aW"/><use transform="matrix(0.05,0,0,0.05,79.80000000000001,0)" xlink:href="#be"/></g><g id="Z"><use transform="matrix(0.05,0,0,0.05,0,0)" xlink:href="#bi"/><use transform="matrix(0.05,0,0,0.05,14,0)" xlink:href="#bd"/><use transform="matrix(0.05,0,0,0.05,23,0)" xlink:href="#aV"/><use transform="matrix(0.05,0,0,0.05,33,0)" xlink:href="#bc"/><use transform="matrix(0.05,0,0,0.05,38.95,0)" xlink:href="#aZ"/><use transform="matrix(0.05,0,0,0.05,47.95,0)" xlink:href="#aY"/><use transform="matrix(0.05,0,0,0.05,51.900000000000006,0)" xlink:href="#bo"/><use transform="matrix(0.05,0,0,0.05,60.900000000000006,0)" xlink:href="#bp"/><use transform="matrix(0.05,0,0,0.05,70.9,0)" xlink:href="#bk"/></g><g id="aa"><use transform="matrix(0.05,0,0,0.05,0,0)" xlink:href="#bb"/><use transform="matrix(0.05,0,0,0.05,9,0)" xlink:href="#bj"/><use transform="matrix(0.05,0,0,0.05,19,0)" xlink:href="#aV"/><use transform="matrix(0.05,0,0,0.05,29,0)" xlink:href="#bo"/><use transform="matrix(0.05,0,0,0.05,38,0)" xlink:href="#aY"/><use transform="matrix(0.05,0,0,0.05,41.95,0)" xlink:href="#bl"/><use transform="matrix(0.05,0,0,0.05,46.95,0)" xlink:href="#aY"/><use transform="matrix(0.05,0,0,0.05,50.900000000000006,0)" xlink:href="#aV"/><use transform="matrix(0.05,0,0,0.05,60.900000000000006,0)" xlink:href="#bh"/></g><g id="ab"><use transform="matrix(0.05,0,0,0.05,0,0)" xlink:href="#bf"/><use transform="matrix(0.05,0,0,0.05,14.950000000000001,0)" xlink:href="#aV"/><use transform="matrix(0.05,0,0,0.05,24.950000000000003,0)" xlink:href="#aW"/><use transform="matrix(0.05,0,0,0.05,34.95,0)" xlink:href="#aX"/></g><g id="ac"><use transform="matrix(0.05,0,0,0.05,0,0)" xlink:href="#aY"/><use transform="matrix(0.05,0,0,0.05,3.95,0)" xlink:href="#bk"/><use transform="matrix(0.05,0,0,0.05,8.95,0)" xlink:href="#aV"/><use transform="matrix(0.05,0,0,0.05,18.95,0)" xlink:href="#bf"/></g><g id="ad"><use transform="matrix(0.05,0,0,0.05,0,0)" xlink:href="#bu"/><use transform="matrix(0.05,0,0,0.05,12,0)" xlink:href="#aV"/><use transform="matrix(0.05,0,0,0.05,22,0)" xlink:href="#bd"/><use transform="matrix(0.05,0,0,0.05,31,0)" xlink:href="#aV"/><use transform="matrix(0.05,0,0,0.05,41,0)" xlink:href="#bb"/><use transform="matrix(0.05,0,0,0.05,50,0)" xlink:href="#bk"/><use transform="matrix(0.05,0,0,0.05,55,0)" xlink:href="#aY"/><use transform="matrix(0.05,0,0,0.05,58.95,0)" xlink:href="#be"/><use transform="matrix(0.05,0,0,0.05,68.95,0)" xlink:href="#aY"/><use transform="matrix(0.05,0,0,0.05,72.9,0)" xlink:href="#aW"/><use transform="matrix(0.05,0,0,0.05,82.9,0)" xlink:href="#be"/></g><g id="ae"><use transform="matrix(0.05,0,0,0.05,0,0)" xlink:href="#bn"/><use transform="matrix(0.05,0,0,0.05,10,0)" xlink:href="#aV"/><use transform="matrix(0.05,0,0,0.05,20,0)" xlink:href="#bb"/><use transform="matrix(0.05,0,0,0.05,29,0)" xlink:href="#bk"/><use transform="matrix(0.05,0,0,0.05,34,0)" xlink:href="#aV"/><use transform="matrix(0.05,0,0,0.05,44,0)" xlink:href="#bm"/><use transform="matrix(0.05,0,0,0.05,47.95,0)" xlink:href="#bm"/><use transform="matrix(0.05,0,0,0.05,51.900000000000006,0)" xlink:href="#aY"/><use transform="matrix(0.05,0,0,0.05,55.85,0)" xlink:href="#aW"/><use transform="matrix(0.05,0,0,0.05,65.85000000000001,0)" xlink:href="#be"/></g><path fill="#333" d="M30-248c87 1 191-15 191 75 0 78-77 80-158 76V0H30v-248zm33 125c57 0 124 11 124-50 0-59-68-47-124-48v98" id="bA"/><g id="af"><use transform="matrix(0.05,0,0,0.05,0,0)" xlink:href="#bA"/><use transform="matrix(0.05,0,0,0.05,12,0)" xlink:href="#bm"/><use transform="matrix(0.05,0,0,0.05,15.949999999999998,0)" xlink:href="#bg"/><use transform="matrix(0.05,0,0,0.05,25.950000000000003,0)" xlink:href="#bg"/><use transform="matrix(0.05,0,0,0.05,35.95,0)" xlink:href="#bk"/><use transform="matrix(0.05,0,0,0.05,40.95,0)" xlink:href="#bb"/><use transform="matrix(0.05,0,0,0.05,49.95,0)" xlink:href="#aV"/><use transform="matrix(0.05,0,0,0.05,59.95,0)" xlink:href="#aW"/></g><path fill="#333" d="M205 0l-28-72H64L36 0H1l101-248h38L239 0h-34zm-38-99l-47-123c-12 45-31 82-46 123h93" id="bB"/><g id="ag"><use transform="matrix(0.05,0,0,0.05,0,0)" xlink:href="#bB"/><use transform="matrix(0.05,0,0,0.05,12,0)" xlink:href="#bm"/><use transform="matrix(0.05,0,0,0.05,15.949999999999998,0)" xlink:href="#bb"/></g><g id="ah"><use transform="matrix(0.05,0,0,0.05,0,0)" xlink:href="#bc"/><use transform="matrix(0.05,0,0,0.05,5.95,0)" xlink:href="#aV"/><use transform="matrix(0.05,0,0,0.05,15.949999999999998,0)" xlink:href="#bb"/><use transform="matrix(0.05,0,0,0.05,24.95,0)" xlink:href="#aV"/><use transform="matrix(0.05,0,0,0.05,34.95,0)" xlink:href="#bc"/><use transform="matrix(0.05,0,0,0.05,40.900000000000006,0)" xlink:href="#bd"/><use transform="matrix(0.05,0,0,0.05,49.900000000000006,0)" xlink:href="#aV"/><use transform="matrix(0.05,0,0,0.05,59.900000000000006,0)" xlink:href="#bc"/><use transform="matrix(0.05,0,0,0.05,65.85000000000001,0)" xlink:href="#aY"/><use transform="matrix(0.05,0,0,0.05,69.80000000000001,0)" xlink:href="#aW"/><use transform="matrix(0.05,0,0,0.05,79.80000000000001,0)" xlink:href="#be"/></g><g id="ai"><use transform="matrix(0.05,0,0,0.05,0,0)" xlink:href="#aY"/><use transform="matrix(0.05,0,0,0.05,3.95,0)" xlink:href="#bb"/></g><g id="aj"><use transform="matrix(0.05,0,0,0.05,0,0)" xlink:href="#be"/><use transform="matrix(0.05,0,0,0.05,10,0)" xlink:href="#aV"/><use transform="matrix(0.05,0,0,0.05,20,0)" xlink:href="#bj"/><use transform="matrix(0.05,0,0,0.05,30,0)" xlink:href="#bm"/><use transform="matrix(0.05,0,0,0.05,33.95,0)" xlink:href="#bg"/><use transform="matrix(0.05,0,0,0.05,43.95,0)" xlink:href="#bg"/><use transform="matrix(0.05,0,0,0.05,53.95,0)" xlink:href="#bk"/><use transform="matrix(0.05,0,0,0.05,58.95,0)" xlink:href="#bb"/><use transform="matrix(0.05,0,0,0.05,67.95,0)" xlink:href="#bk"/></g><path fill="#333" d="M232-93c-1 65-40 97-104 97C67 4 28-28 28-90v-158h33c8 89-33 224 67 224 102 0 64-133 71-224h33v155" id="bC"/><g id="ak"><use transform="matrix(0.05,0,0,0.05,0,0)" xlink:href="#bC"/><use transform="matrix(0.05,0,0,0.05,12.950000000000001,0)" xlink:href="#aY"/><use transform="matrix(0.05,0,0,0.05,16.900000000000002,0)" xlink:href="#bk"/><use transform="matrix(0.05,0,0,0.05,21.900000000000002,0)" xlink:href="#bd"/><use transform="matrix(0.05,0,0,0.05,30.900000000000002,0)" xlink:href="#bs"/><use transform="matrix(0.05,0,0,0.05,40.900000000000006,0)" xlink:href="#aV"/><use transform="matrix(0.05,0,0,0.05,50.900000000000006,0)" xlink:href="#bc"/><use transform="matrix(0.05,0,0,0.05,56.85,0)" xlink:href="#aV"/><use transform="matrix(0.05,0,0,0.05,66.85000000000001,0)" xlink:href="#aW"/></g><g id="al"><use transform="matrix(0.05,0,0,0.05,0,0)" xlink:href="#bn"/><use transform="matrix(0.05,0,0,0.05,10,0)" xlink:href="#aV"/><use transform="matrix(0.05,0,0,0.05,20,0)" xlink:href="#bk"/><use transform="matrix(0.05,0,0,0.05,25,0)" xlink:href="#bg"/><use transform="matrix(0.05,0,0,0.05,35,0)" xlink:href="#bm"/><use transform="matrix(0.05,0,0,0.05,38.95,0)" xlink:href="#aY"/><use transform="matrix(0.05,0,0,0.05,42.900000000000006,0)" xlink:href="#aW"/><use transform="matrix(0.05,0,0,0.05,52.900000000000006,0)" xlink:href="#be"/></g><g id="am"><use transform="matrix(0.05,0,0,0.05,0,0)" xlink:href="#bB"/><use transform="matrix(0.05,0,0,0.05,12,0)" xlink:href="#bm"/></g><g id="an"><use transform="matrix(0.05,0,0,0.05,0,0)" xlink:href="#bg"/><use transform="matrix(0.05,0,0,0.05,10,0)" xlink:href="#bg"/><use transform="matrix(0.05,0,0,0.05,20,0)" xlink:href="#aW"/><use transform="matrix(0.05,0,0,0.05,30,0)" xlink:href="#bz"/><use transform="matrix(0.05,0,0,0.05,42.95,0)" xlink:href="#aV"/><use transform="matrix(0.05,0,0,0.05,52.95,0)" xlink:href="#aZ"/><use transform="matrix(0.05,0,0,0.05,61.95,0)" xlink:href="#aY"/><use transform="matrix(0.05,0,0,0.05,65.9,0)" xlink:href="#be"/></g><g id="ao"><use transform="matrix(0.05,0,0,0.05,0,0)" xlink:href="#aY"/><use transform="matrix(0.05,0,0,0.05,3.95,0)" xlink:href="#aW"/></g><g id="ap"><use transform="matrix(0.05,0,0,0.05,0,0)" xlink:href="#bp"/><use transform="matrix(0.05,0,0,0.05,10,0)" xlink:href="#aV"/><use transform="matrix(0.05,0,0,0.05,20,0)" xlink:href="#bk"/></g><g id="aq"><use transform="matrix(0.05,0,0,0.05,0,0)" xlink:href="#bc"/><use transform="matrix(0.05,0,0,0.05,5.95,0)" xlink:href="#aV"/><use transform="matrix(0.05,0,0,0.05,15.949999999999998,0)" xlink:href="#bb"/><use transform="matrix(0.05,0,0,0.05,24.95,0)" xlink:href="#bk"/><use transform="matrix(0.05,0,0,0.05,29.950000000000003,0)" xlink:href="#bg"/><use transform="matrix(0.05,0,0,0.05,39.95,0)" xlink:href="#aX"/><use transform="matrix(0.05,0,0,0.05,49.95,0)" xlink:href="#bc"/><use transform="matrix(0.05,0,0,0.05,55.900000000000006,0)" xlink:href="#bg"/><use transform="matrix(0.05,0,0,0.05,65.9,0)" xlink:href="#aW"/><use transform="matrix(0.05,0,0,0.05,75.9,0)" xlink:href="#bk"/></g></defs></g></svg>