<svg xmlns="http://www.w3.org/2000/svg" xmlns:xlink="http://www.w3.org/1999/xlink" xmlns:lucid="lucid" width="1760" height="1360"><g transform="translate(0 0)" lucid:page-tab-id="0_0"><path d="M361 618.6h-2v-55.24h2zM440.76 471h-75.68l-1.26.2-2 1.46-.82 2.5v66.6h-2v-66.92l1.1-3.4 2.92-2.13 1.9-.3h75.84zM361 621l-1-1-1 1v-2.4h2zM455.76 470l-14.26 4.64v-9.28z" fill="#999"/><path d="M459 470l-18.5 6v-12zm-16.5 3.26l10.03-3.26-10.03-3.26z" fill="#999"/><use xlink:href="#a" transform="matrix(1,0,0,1,290.025,541.7629097333325) translate(0 14.4)"/><use xlink:href="#b" transform="matrix(1,0,0,1,290.025,541.7629097333325) translate(95 14.4)"/><path d="M361 876.26l.82 2.5 2 1.45 1.26.2h75.68v2h-75.84l-1.9-.3-2.9-2.12-1.12-3.4v-72.8h2zm0-115.67h-2v-59.2h2z" fill="#999"/><path d="M361 701.4h-2V699l1 1 1-1zM455.76 881.4l-14.26 4.65v-9.27z" fill="#999"/><path d="M459 881.4l-18.5 6.03V875.4zm-16.5 3.27l10.03-3.26-10.03-3.24z" fill="#999"/><use xlink:href="#c" transform="matrix(1,0,0,1,283.575,760.591356857143) translate(32.45499999999999 14.4)"/><use xlink:href="#d" transform="matrix(1,0,0,1,283.575,760.591356857143) translate(0.0049999999999954525 36)"/><use xlink:href="#e" transform="matrix(1,0,0,1,283.575,760.591356857143) translate(74.005 36)"/><path d="M654.55 882.4H621v-2h33.55zm126.2 0h-15.3v-2h15.3zM621 882.4h-1v-2h1zM795.76 881.4l-14.26 4.65v-9.27z" fill="#999"/><path d="M799 881.4l-18.5 6.03V875.4zm-16.5 3.27l10.03-3.26-10.03-3.24z" fill="#999"/><use xlink:href="#f" transform="matrix(1,0,0,1,654.55,859.814214) translate(0.005000000000002558 14.4)"/><use xlink:href="#g" transform="matrix(1,0,0,1,654.55,859.814214) translate(80.905 14.4)"/><use xlink:href="#h" transform="matrix(1,0,0,1,654.55,859.814214) translate(16.03000000000001 36)"/><path d="M654.55 471H621v-2h33.55zm126.2 0h-15.3v-2h15.3zM621 471h-1v-2h1zM795.76 470l-14.26 4.64v-9.28z" fill="#999"/><path d="M799 470l-18.5 6v-12zm-16.5 3.26l10.03-3.26-10.03-3.26z" fill="#999"/><use xlink:href="#i" transform="matrix(1,0,0,1,654.55,448.4) translate(0.005000000000002558 14.4)"/><use xlink:href="#j" transform="matrix(1,0,0,1,654.55,448.4) translate(80.905 14.4)"/><use xlink:href="#k" transform="matrix(1,0,0,1,654.55,448.4) translate(13.530000000000008 36)"/><use xlink:href="#l" transform="matrix(1,0,0,1,654.55,448.4) translate(63.48000000000001 36)"/><path d="M100 660c0 16.57-13.43 30-30 30s-30-13.43-30-30 13.43-30 30-30 30 13.43 30 30z" stroke="#666" stroke-width="2" fill="#a3d977"/><use xlink:href="#m" transform="matrix(1,0,0,1,40,690) translate(11.024999999999999 14.4)"/><path d="M160 605c0-2.76 2.24-5 5-5h90c2.76 0 5 2.24 5 5v110c0 2.76-2.24 5-5 5h-90c-2.76 0-5-2.24-5-5z" stroke="#666" stroke-width="2" fill="#fff"/><use xlink:href="#n" transform="matrix(1,0,0,1,160,600) translate(1.5499999999999972 51.9)"/><use xlink:href="#o" transform="matrix(1,0,0,1,160,600) translate(75.5 51.9)"/><use xlink:href="#p" transform="matrix(1,0,0,1,160,600) translate(33 73.5)"/><path d="M460 415c0-2.76 2.24-5 5-5h150c2.76 0 5 2.24 5 5v110c0 2.76-2.24 5-5 5H465c-2.76 0-5-2.24-5-5z" stroke="#666" stroke-width="2" fill="#fff"/><use xlink:href="#q" transform="matrix(1,0,0,1,460,410) translate(17.074999999999996 51.9)"/><use xlink:href="#r" transform="matrix(1,0,0,1,460,410) translate(97.975 51.9)"/><use xlink:href="#s" transform="matrix(1,0,0,1,460,410) translate(58.55 73.5)"/><path d="M460 826.4c0-2.75 2.24-5 5-5h150c2.76 0 5 2.25 5 5v110c0 2.78-2.24 5-5 5H465c-2.76 0-5-2.22-5-5z" stroke="#666" stroke-width="2" fill="#fff"/><use xlink:href="#t" transform="matrix(1,0,0,1,460,821.414214) translate(10.599999999999994 51.9)"/><use xlink:href="#u" transform="matrix(1,0,0,1,460,821.414214) translate(91.5 51.9)"/><use xlink:href="#v" transform="matrix(1,0,0,1,460,821.414214) translate(30.575000000000003 73.5)"/><path d="M32 37c0-2.76 2.24-5 5-5h838c2.76 0 5 2.24 5 5v38c0 2.76-2.24 5-5 5H37c-2.76 0-5-2.24-5-5z" fill="none"/><use xlink:href="#w" transform="matrix(1,0,0,1,32,32) translate(0 31.11111111111111)"/><use xlink:href="#x" transform="matrix(1,0,0,1,32,32) translate(238.22222222222223 31.11111111111111)"/><path d="M31.33 80H1728" stroke="#999" stroke-width="2" fill="none"/><path d="M1040 37c0-2.76 2.24-5 5-5h678c2.76 0 5 2.24 5 5v38c0 2.76-2.24 5-5 5h-678c-2.76 0-5-2.24-5-5z" fill="none"/><use xlink:href="#y" transform="matrix(1,0,0,1,1040,32) translate(344.3580246913614 28.4444444444444)"/><use xlink:href="#z" transform="matrix(1,0,0,1,1040,32) translate(468.8024691358046 28.4444444444444)"/><use xlink:href="#A" transform="matrix(1,0,0,1,1040,32) translate(493.0617283950636 28.4444444444444)"/><use xlink:href="#B" transform="matrix(1,0,0,1,1040,32) translate(523.9259259259275 28.4444444444444)"/><use xlink:href="#C" transform="matrix(1,0,0,1,1040,32) translate(638.6172839506178 28.4444444444444)"/><path d="M320 660l40-40 40 40-40 40zM800 415c0-2.76 2.24-5 5-5h150c2.76 0 5 2.24 5 5v110c0 2.76-2.24 5-5 5H805c-2.76 0-5-2.24-5-5z" stroke="#666" stroke-width="2" fill="#fff"/><use xlink:href="#D" transform="matrix(1,0,0,1,805,415) translate(37.05 37)"/><use xlink:href="#E" transform="matrix(1,0,0,1,805,415) translate(15.074999999999996 58.6)"/><use xlink:href="#F" transform="matrix(1,0,0,1,805,415) translate(89.975 58.6)"/><use xlink:href="#l" transform="matrix(1,0,0,1,805,415) translate(58.05 80.20000000000002)"/><path d="M1370 435c0-2.76 2.24-5 5-5h150c2.76 0 5 2.24 5 5v70c0 2.76-2.24 5-5 5h-150c-2.76 0-5-2.24-5-5z" stroke="#666" stroke-width="2" fill="#fff"/><use xlink:href="#G" transform="matrix(1,0,0,1,1375,435) translate(11.549999999999997 27.799999999999997)"/><use xlink:href="#H" transform="matrix(1,0,0,1,1375,435) translate(109.45 27.799999999999997)"/><use xlink:href="#I" transform="matrix(1,0,0,1,1375,435) translate(56.025 49.4)"/><path d="M1213.9 389.6h-48.82l-1.26.2-2 1.45-.82 2.5v34.84h-2v-35.17l1.1-3.4 2.92-2.14 1.9-.3h49zm234.67-.9l2.12 2.9.3 1.9v17.26h-2v-17.1l-.2-1.26-1.46-2-2.5-.8h-48.33v-2h48.66zM1161 431l-1-1-1 1v-2.4h2zM1450 425.76l-4.64-14.26h9.28z" fill="#999"/><path d="M1450 429l-6-18.5h12zm-3.26-16.5l3.26 10.03 3.26-10.03z" fill="#999"/><use xlink:href="#J" transform="matrix(1,0,0,1,1213.907107,377.785786) translate(0.0049999999999954525 14.4)"/><use xlink:href="#K" transform="matrix(1,0,0,1,1213.907107,377.785786) translate(5.0049999999999955 14.4)"/><use xlink:href="#L" transform="matrix(1,0,0,1,1213.907107,377.785786) translate(103.75500000000001 14.4)"/><path d="M1161 546.26l.82 2.5 2 1.45 1.26.2h54.23v2h-54.38l-1.9-.3-2.9-2.12-1.12-3.4V511.4h2zm290 .23l-.3 1.9-2.13 2.9-3.4 1.1h-54.06v-2h53.74l2.5-.8 1.46-2 .2-1.27v-17.1h2zM1161 511.4h-2V509l1 1 1-1zM1454.64 528.5h-9.28l4.64-14.26z" fill="#999"/><path d="M1456 529.5h-12l6-18.5zm-9.26-2h6.52l-3.26-10.03z" fill="#999"/><use xlink:href="#M" transform="matrix(1,0,0,1,1219.3071069999999,540.6142140000001) translate(0.0049999999999954525 14.4)"/><use xlink:href="#L" transform="matrix(1,0,0,1,1219.3071069999999,540.6142140000001) translate(92.955 14.4)"/><path d="M1120 470l40-40 40 40-40 40z" stroke="#666" stroke-width="2" fill="#fff"/><path d="M994.8 471H961v-2h33.8zm105.55 0h-15.56v-2h15.55zM961 471h-1v-2h1zM1115.35 470l-14.27 4.64v-9.28z" fill="#999"/><path d="M1118.6 470l-18.52 6v-12zm-16.52 3.26l10.03-3.26-10.02-3.26z" fill="#999"/><use xlink:href="#N" transform="matrix(1,0,0,1,994.792893,448.4) translate(0.005000000000002558 14.4)"/><use xlink:href="#k" transform="matrix(1,0,0,1,994.792893,448.4) translate(3.0800000000000054 36)"/><use xlink:href="#l" transform="matrix(1,0,0,1,994.792893,448.4) translate(53.03000000000001 36)"/><path d="M1245.78 471h-44.37v-2h44.38zm104.98-2.5h-26.13v-2h26.13zM1201.4 471h-2.4l1-1-1-1h2.4zM1365.76 467.5l-14.26 4.64v-9.28z" fill="#999"/><path d="M1369 467.5l-18.5 6v-12zm-16.5 3.26l10.03-3.26-10.03-3.26z" fill="#999"/><use xlink:href="#O" transform="matrix(1,0,0,1,1245.782107,447.15) translate(5.530000000000001 14.4)"/><use xlink:href="#h" transform="matrix(1,0,0,1,1245.782107,447.15) translate(0.005000000000002558 36)"/><path d="M800 185c0-2.76 2.24-5 5-5h150c2.76 0 5 2.24 5 5v110c0 2.76-2.24 5-5 5H805c-2.76 0-5-2.24-5-5z" stroke="#666" stroke-width="2" fill="#fff"/><use xlink:href="#G" transform="matrix(1,0,0,1,805,185) translate(3.5749999999999886 47.8)"/><use xlink:href="#F" transform="matrix(1,0,0,1,805,185) translate(101.475 47.8)"/><use xlink:href="#P" transform="matrix(1,0,0,1,805,185) translate(14.674999999999997 69.4)"/><use xlink:href="#Q" transform="matrix(1,0,0,1,805,185) translate(53.574999999999996 69.4)"/><path d="M881 409h-2v-43.2h2zm0-64.8h-2v-24.96h2zM881 410h-2v-1h2zM884.64 318.5h-9.28l4.64-14.26z" fill="#999"/><path d="M886 319.5h-12l6-18.5zm-9.26-2h6.52L880 307.47z" fill="#999"/><use xlink:href="#R" transform="matrix(1,0,0,1,788.7,344.2) translate(0.0049999999999954525 14.4)"/><use xlink:href="#S" transform="matrix(1,0,0,1,788.7,344.2) translate(98.75500000000001 14.4)"/><use xlink:href="#T" transform="matrix(1,0,0,1,788.7,344.2) translate(148.705 14.4)"/><path d="M1370 847.4c0-2.75 2.24-5 5-5h150c2.76 0 5 2.25 5 5v70c0 2.78-2.24 5-5 5h-150c-2.76 0-5-2.22-5-5z" stroke="#666" stroke-width="2" fill="#fff"/><use xlink:href="#G" transform="matrix(1,0,0,1,1375,847.414214) translate(11.549999999999997 27.799999999999997)"/><use xlink:href="#H" transform="matrix(1,0,0,1,1375,847.414214) translate(109.45 27.799999999999997)"/><use xlink:href="#I" transform="matrix(1,0,0,1,1375,847.414214) translate(56.025 49.4)"/><path d="M1216.9 801h-51.82l-1.26.2-2 1.46-.82 2.5V840h-2v-35.16l1.1-3.4 2.92-2.13 1.9-.3h52zm231.67-.9l2.12 2.92.3 1.9v18.26h-2v-18.1l-.2-1.26-1.46-2-2.5-.82h-50.33v-2h50.66zM1161 842.4l-1-1-1 1V840h2zM1450 838.18l-4.64-14.27h9.28z" fill="#999"/><path d="M1450 841.4l-6-18.5h12zm-3.26-16.5l3.26 10.04 3.26-10.03z" fill="#999"/><g><use xlink:href="#R" transform="matrix(1,0,0,1,1216.907107,789.2) translate(0.0049999999999954525 14.4)"/><use xlink:href="#L" transform="matrix(1,0,0,1,1216.907107,789.2) translate(98.75500000000001 14.4)"/></g><path d="M583.04 977.26l.82 2.5 2 1.45 1.26.2h352.5v2H586.96l-1.9-.3-2.9-2.12-1.12-3.4V942.4h2zm867.96.23l-.3 1.9-2.13 2.9-3.4 1.1H1111.4v-2h333.42l2.5-.8 1.46-2 .2-1.27v-35.68h2zM583.04 942.4h-2v-1h2zM1454.64 940.92h-9.28l4.64-14.27z" fill="#999"/><path d="M1456 941.92h-12l6-18.5zm-9.26-2h6.52L1450 929.9z" fill="#999"/><g><use xlink:href="#M" transform="matrix(1,0,0,1,939.6205223880598,971.6142140000001) translate(0.0049999999999954525 14.4)"/><use xlink:href="#U" transform="matrix(1,0,0,1,939.6205223880598,971.6142140000001) translate(92.955 14.4)"/></g><path d="M1120 881.4l40-40 40 40-40 40z" stroke="#666" stroke-width="2" fill="#fff"/><path d="M1245.78 882.4h-44.37v-2h44.38zm104.98-1.5h-26.13v-2h26.13zM1201.4 882.4h-2.4l1-1-1-1h2.4zM1365.76 879.9l-14.26 4.65v-9.27z" fill="#999"/><path d="M1369 879.9l-18.5 6.03V873.9zm-16.5 3.27l10.03-3.26-10.03-3.24z" fill="#999"/><g><use xlink:href="#V" transform="matrix(1,0,0,1,1245.782107,859.064214) translate(5.530000000000001 14.4)"/><use xlink:href="#h" transform="matrix(1,0,0,1,1245.782107,859.064214) translate(0.005000000000002558 36)"/></g><path d="M1569.57 882.53l2.12 2.9.3 1.9v149.24l-1.1 3.4-2.92 2.14-1.9.3H544.84l-3.4-1.1-2.13-2.9-.3-1.9v-75.85h2v75.68l.2 1.27 1.46 2 2.5.8h1020.76l1.26-.2 2-1.45.82-2.5V887.5l-.2-1.27-1.46-2-2.5-.82H1531v-2h35.16z" fill="#999"/><path d="M1531 883.4h-1v-2h1zM544.64 959.92h-9.28l4.64-14.27z" fill="#999"/><path d="M546 960.92h-12l6-18.5zm-9.26-2h6.52L540 948.9zM1569.57 470.1l2.12 2.92.3 1.9v91.24l-1.1 3.4-2.92 2.13-1.9.3H884.84l-3.4-1.1-2.13-2.92-.3-1.9v-16.84h2v16.68l.2 1.26 1.46 2 2.5.82h680.76l1.26-.2 2-1.46.82-2.5v-90.76l-.2-1.26-1.46-2-2.5-.82H1531v-2h35.16z" fill="#999"/><path d="M1531 471h-1v-2h1zM884.64 548.5h-9.28l4.64-14.26z" fill="#999"/><path d="M886 549.5h-12l6-18.5zm-9.26-2h6.52L880 537.47z" fill="#999"/><path d="M800 826.4c0-2.75 2.24-5 5-5h150c2.76 0 5 2.25 5 5v110c0 2.78-2.24 5-5 5H805c-2.76 0-5-2.22-5-5z" stroke="#666" stroke-width="2" fill="#fff"/><g><use xlink:href="#W" transform="matrix(1,0,0,1,805,826.414214) translate(37.05 37)"/><use xlink:href="#X" transform="matrix(1,0,0,1,805,826.414214) translate(40.05 58.6)"/><use xlink:href="#L" transform="matrix(1,0,0,1,805,826.414214) translate(35.575 80.20000000000002)"/></g><path d="M984.22 882.4H961v-2h23.22zm116.13 0h-26.13v-2h26.13zM961 882.4h-1v-2h1zM1115.35 881.4l-14.27 4.65v-9.27z" fill="#999"/><path d="M1118.6 881.4l-18.52 6.03V875.4zm-16.52 3.27l10.03-3.26-10.02-3.24z" fill="#999"/><g><use xlink:href="#Y" transform="matrix(1,0,0,1,984.2240232360016,859.814214) translate(0.005000000000002558 14.4)"/><use xlink:href="#h" transform="matrix(1,0,0,1,984.2240232360016,859.814214) translate(5.580000000000005 36)"/></g><path d="M261 660h39.35" stroke="#999" stroke-width="2" fill="none"/><path d="M261 661h-1v-2h1zM315.35 660l-14.27 4.64v-9.28z" fill="#999"/><path d="M318.6 660l-18.52 6v-12zm-16.52 3.26L312.1 660l-10.02-3.26z" fill="#999"/><path d="M101 660h39.76" stroke="#999" stroke-width="2" fill="none"/><path d="M101 661h-1.08l.08-1-.04-1H101zM155.76 660l-14.26 4.64v-9.28z" fill="#999"/><path d="M159 660l-18.5 6v-12zm-16.5 3.26l10.03-3.26-10.03-3.26z" fill="#999"/><defs><path fill="#333" d="M205 0l-28-72H64L36 0H1l101-248h38L239 0h-34zm-38-99l-47-123c-12 45-31 82-46 123h93" id="Z"/><path fill="#333" d="M141-36C126-15 110 5 73 4 37 3 15-17 15-53c-1-64 63-63 125-63 3-35-9-54-41-54-24 1-41 7-42 31l-33-3c5-37 33-52 76-52 45 0 72 20 72 64v82c-1 20 7 32 28 27v20c-31 9-61-2-59-35zM48-53c0 20 12 33 32 33 41-3 63-29 60-74-43 2-92-5-92 41" id="aa"/><path fill="#333" d="M117-194c89-4 53 116 60 194h-32v-121c0-31-8-49-39-48C34-167 62-67 57 0H25l-1-190h30c1 10-1 24 2 32 11-22 29-35 61-36" id="ab"/><path fill="#333" d="M115-194c55 1 70 41 70 98S169 2 115 4C84 4 66-9 55-30l1 105H24l-1-265h31l2 30c10-21 28-34 59-34zm-8 174c40 0 45-34 45-75s-6-73-45-74c-42 0-51 32-51 76 0 43 10 73 51 73" id="ac"/><path fill="#333" d="M135-143c-3-34-86-38-87 0 15 53 115 12 119 90S17 21 10-45l28-5c4 36 97 45 98 0-10-56-113-15-118-90-4-57 82-63 122-42 12 7 21 19 24 35" id="ad"/><path fill="#333" d="M100-194c63 0 86 42 84 106H49c0 40 14 67 53 68 26 1 43-12 49-29l28 8c-11 28-37 45-77 45C44 4 14-33 15-96c1-61 26-98 85-98zm52 81c6-60-76-77-97-28-3 7-6 17-6 28h103" id="ae"/><g id="a"><use transform="matrix(0.05,0,0,0.05,0,0)" xlink:href="#Z"/><use transform="matrix(0.05,0,0,0.05,12,0)" xlink:href="#aa"/><use transform="matrix(0.05,0,0,0.05,22,0)" xlink:href="#ab"/><use transform="matrix(0.05,0,0,0.05,32,0)" xlink:href="#ac"/><use transform="matrix(0.05,0,0,0.05,42,0)" xlink:href="#aa"/><use transform="matrix(0.05,0,0,0.05,52,0)" xlink:href="#ad"/><use transform="matrix(0.05,0,0,0.05,61,0)" xlink:href="#ad"/><use transform="matrix(0.05,0,0,0.05,70,0)" xlink:href="#ae"/><use transform="matrix(0.05,0,0,0.05,80,0)" xlink:href="#ab"/></g><path fill="#333" d="M210-169c-67 3-38 105-44 169h-31v-121c0-29-5-50-35-48C34-165 62-65 56 0H25l-1-190h30c1 10-1 24 2 32 10-44 99-50 107 0 11-21 27-35 58-36 85-2 47 119 55 194h-31v-121c0-29-5-49-35-48" id="af"/><path fill="#333" d="M84 4C-5 8 30-112 23-190h32v120c0 31 7 50 39 49 72-2 45-101 50-169h31l1 190h-30c-1-10 1-25-2-33-11 22-28 36-60 37" id="ag"/><g id="b"><use transform="matrix(0.05,0,0,0.05,0,0)" xlink:href="#af"/><use transform="matrix(0.05,0,0,0.05,14.950000000000001,0)" xlink:href="#ae"/><use transform="matrix(0.05,0,0,0.05,24.950000000000003,0)" xlink:href="#ab"/><use transform="matrix(0.05,0,0,0.05,34.95,0)" xlink:href="#ag"/></g><path fill="#333" d="M127-220V0H93v-220H8v-28h204v28h-85" id="ah"/><path fill="#333" d="M100-194c62-1 85 37 85 99 1 63-27 99-86 99S16-35 15-95c0-66 28-99 85-99zM99-20c44 1 53-31 53-75 0-43-8-75-51-75s-53 32-53 75 10 74 51 75" id="ai"/><path fill="#333" d="M108 0H70L1-190h34L89-25l56-165h34" id="aj"/><path fill="#333" d="M177-190C167-65 218 103 67 71c-23-6-38-20-44-43l32-5c15 47 100 32 89-28v-30C133-14 115 1 83 1 29 1 15-40 15-95c0-56 16-97 71-98 29-1 48 16 59 35 1-10 0-23 2-32h30zM94-22c36 0 50-32 50-73 0-42-14-75-50-75-39 0-46 34-46 75s6 73 46 73" id="ak"/><g id="c"><use transform="matrix(0.05,0,0,0.05,0,0)" xlink:href="#ah"/><use transform="matrix(0.05,0,0,0.05,8.950000000000001,0)" xlink:href="#ai"/><use transform="matrix(0.05,0,0,0.05,18.950000000000003,0)" xlink:href="#ae"/><use transform="matrix(0.05,0,0,0.05,28.950000000000003,0)" xlink:href="#aj"/><use transform="matrix(0.05,0,0,0.05,37.95,0)" xlink:href="#ai"/><use transform="matrix(0.05,0,0,0.05,47.95,0)" xlink:href="#ae"/><use transform="matrix(0.05,0,0,0.05,57.95,0)" xlink:href="#ak"/><use transform="matrix(0.05,0,0,0.05,67.95,0)" xlink:href="#ae"/><use transform="matrix(0.05,0,0,0.05,77.95,0)" xlink:href="#ab"/></g><path fill="#333" d="M143 0L79-87 56-68V0H24v-261h32v163l83-92h37l-77 82L181 0h-38" id="al"/><g id="d"><use transform="matrix(0.05,0,0,0.05,0,0)" xlink:href="#aa"/><use transform="matrix(0.05,0,0,0.05,10,0)" xlink:href="#aa"/><use transform="matrix(0.05,0,0,0.05,20,0)" xlink:href="#ab"/><use transform="matrix(0.05,0,0,0.05,30,0)" xlink:href="#al"/><use transform="matrix(0.05,0,0,0.05,39,0)" xlink:href="#ai"/><use transform="matrix(0.05,0,0,0.05,49,0)" xlink:href="#ai"/><use transform="matrix(0.05,0,0,0.05,59,0)" xlink:href="#ac"/></g><path fill="#333" d="M24-231v-30h32v30H24zM24 0v-190h32V0H24" id="am"/><path fill="#333" d="M114-163C36-179 61-72 57 0H25l-1-190h30c1 12-1 29 2 39 6-27 23-49 58-41v29" id="an"/><path fill="#333" d="M85-194c31 0 48 13 60 33l-1-100h32l1 261h-30c-2-10 0-23-3-31C134-8 116 4 85 4 32 4 16-35 15-94c0-66 23-100 70-100zm9 24c-40 0-46 34-46 75 0 40 6 74 45 74 42 0 51-32 51-76 0-42-9-74-50-73" id="ao"/><path fill="#333" d="M100-194c63 0 86 42 84 106H49c0 40 14 67 53 68 26 1 43-12 49-29l28 8c-11 28-37 45-77 45C44 4 14-33 15-96c1-61 26-98 85-98zm52 81c6-60-76-77-97-28-3 7-6 17-6 28h103zm-31-101v-33h29v33h-29zm-69 0v-33h29v33H52" id="ap"/><path fill="#333" d="M59-47c-2 24 18 29 38 22v24C64 9 27 4 27-40v-127H5v-23h24l9-43h21v43h35v23H59v120" id="aq"/><g id="e"><use transform="matrix(0.05,0,0,0.05,0,0)" xlink:href="#am"/><use transform="matrix(0.05,0,0,0.05,3.95,0)" xlink:href="#ab"/><use transform="matrix(0.05,0,0,0.05,13.949999999999998,0)" xlink:href="#ak"/><use transform="matrix(0.05,0,0,0.05,23.95,0)" xlink:href="#an"/><use transform="matrix(0.05,0,0,0.05,29.899999999999995,0)" xlink:href="#ae"/><use transform="matrix(0.05,0,0,0.05,39.9,0)" xlink:href="#ao"/><use transform="matrix(0.05,0,0,0.05,49.9,0)" xlink:href="#am"/><use transform="matrix(0.05,0,0,0.05,53.85,0)" xlink:href="#ap"/><use transform="matrix(0.05,0,0,0.05,63.85,0)" xlink:href="#ab"/><use transform="matrix(0.05,0,0,0.05,73.85,0)" xlink:href="#aq"/></g><path fill="#333" d="M185-189c-5-48-123-54-124 2 14 75 158 14 163 119 3 78-121 87-175 55-17-10-28-26-33-46l33-7c5 56 141 63 141-1 0-78-155-14-162-118-5-82 145-84 179-34 5 7 8 16 11 25" id="ar"/><path fill="#333" d="M24 0v-261h32V0H24" id="as"/><path fill="#333" d="M96-169c-40 0-48 33-48 73s9 75 48 75c24 0 41-14 43-38l32 2c-6 37-31 61-74 61-59 0-76-41-82-99-10-93 101-131 147-64 4 7 5 14 7 22l-32 3c-4-21-16-35-41-35" id="at"/><g id="f"><use transform="matrix(0.05,0,0,0.05,0,0)" xlink:href="#ar"/><use transform="matrix(0.05,0,0,0.05,12,0)" xlink:href="#ae"/><use transform="matrix(0.05,0,0,0.05,22,0)" xlink:href="#as"/><use transform="matrix(0.05,0,0,0.05,25.950000000000003,0)" xlink:href="#ae"/><use transform="matrix(0.05,0,0,0.05,35.95,0)" xlink:href="#at"/><use transform="matrix(0.05,0,0,0.05,44.95,0)" xlink:href="#aq"/><use transform="matrix(0.05,0,0,0.05,49.95,0)" xlink:href="#ae"/><use transform="matrix(0.05,0,0,0.05,59.95,0)" xlink:href="#ae"/><use transform="matrix(0.05,0,0,0.05,69.95,0)" xlink:href="#an"/></g><g id="g"><use transform="matrix(0.05,0,0,0.05,0,0)" xlink:href="#ae"/><use transform="matrix(0.05,0,0,0.05,10,0)" xlink:href="#ae"/><use transform="matrix(0.05,0,0,0.05,20,0)" xlink:href="#ab"/></g><g id="h"><use transform="matrix(0.05,0,0,0.05,0,0)" xlink:href="#am"/><use transform="matrix(0.05,0,0,0.05,3.95,0)" xlink:href="#ab"/><use transform="matrix(0.05,0,0,0.05,13.949999999999998,0)" xlink:href="#ak"/><use transform="matrix(0.05,0,0,0.05,23.95,0)" xlink:href="#an"/><use transform="matrix(0.05,0,0,0.05,29.899999999999995,0)" xlink:href="#ae"/><use transform="matrix(0.05,0,0,0.05,39.9,0)" xlink:href="#ao"/><use transform="matrix(0.05,0,0,0.05,49.9,0)" xlink:href="#am"/><use transform="matrix(0.05,0,0,0.05,53.85,0)" xlink:href="#ap"/><use transform="matrix(0.05,0,0,0.05,63.85,0)" xlink:href="#ab"/><use transform="matrix(0.05,0,0,0.05,73.85,0)" xlink:href="#aq"/></g><g id="i"><use transform="matrix(0.05,0,0,0.05,0,0)" xlink:href="#ar"/><use transform="matrix(0.05,0,0,0.05,12,0)" xlink:href="#ae"/><use transform="matrix(0.05,0,0,0.05,22,0)" xlink:href="#as"/><use transform="matrix(0.05,0,0,0.05,25.950000000000003,0)" xlink:href="#ae"/><use transform="matrix(0.05,0,0,0.05,35.95,0)" xlink:href="#at"/><use transform="matrix(0.05,0,0,0.05,44.95,0)" xlink:href="#aq"/><use transform="matrix(0.05,0,0,0.05,49.95,0)" xlink:href="#ae"/><use transform="matrix(0.05,0,0,0.05,59.95,0)" xlink:href="#ae"/><use transform="matrix(0.05,0,0,0.05,69.95,0)" xlink:href="#an"/></g><g id="j"><use transform="matrix(0.05,0,0,0.05,0,0)" xlink:href="#ae"/><use transform="matrix(0.05,0,0,0.05,10,0)" xlink:href="#ae"/><use transform="matrix(0.05,0,0,0.05,20,0)" xlink:href="#ab"/></g><g id="k"><use transform="matrix(0.05,0,0,0.05,0,0)" xlink:href="#af"/><use transform="matrix(0.05,0,0,0.05,14.950000000000001,0)" xlink:href="#ae"/><use transform="matrix(0.05,0,0,0.05,24.950000000000003,0)" xlink:href="#ab"/><use transform="matrix(0.05,0,0,0.05,34.95,0)" xlink:href="#ag"/></g><g id="l"><use transform="matrix(0.05,0,0,0.05,0,0)" xlink:href="#am"/><use transform="matrix(0.05,0,0,0.05,3.95,0)" xlink:href="#aq"/><use transform="matrix(0.05,0,0,0.05,8.95,0)" xlink:href="#ae"/><use transform="matrix(0.05,0,0,0.05,18.95,0)" xlink:href="#af"/></g><g id="m"><use transform="matrix(0.05,0,0,0.05,0,0)" xlink:href="#ar"/><use transform="matrix(0.05,0,0,0.05,12,0)" xlink:href="#aq"/><use transform="matrix(0.05,0,0,0.05,17,0)" xlink:href="#aa"/><use transform="matrix(0.05,0,0,0.05,27,0)" xlink:href="#an"/><use transform="matrix(0.05,0,0,0.05,32.95,0)" xlink:href="#aq"/></g><path fill="#333" d="M33 0v-248h34V0H33" id="au"/><g id="n"><use transform="matrix(0.05,0,0,0.05,0,0)" xlink:href="#au"/><use transform="matrix(0.05,0,0,0.05,5,0)" xlink:href="#ab"/><use transform="matrix(0.05,0,0,0.05,15,0)" xlink:href="#as"/><use transform="matrix(0.05,0,0,0.05,18.95,0)" xlink:href="#ai"/><use transform="matrix(0.05,0,0,0.05,28.950000000000003,0)" xlink:href="#ak"/><use transform="matrix(0.05,0,0,0.05,38.95,0)" xlink:href="#ak"/><use transform="matrix(0.05,0,0,0.05,48.95,0)" xlink:href="#ae"/><use transform="matrix(0.05,0,0,0.05,58.95,0)" xlink:href="#ab"/></g><g id="o"><use transform="matrix(0.05,0,0,0.05,0,0)" xlink:href="#aa"/><use transform="matrix(0.05,0,0,0.05,10,0)" xlink:href="#as"/><use transform="matrix(0.05,0,0,0.05,13.949999999999998,0)" xlink:href="#ad"/></g><path fill="#333" d="M106-169C34-169 62-67 57 0H25v-261h32l-1 103c12-21 28-36 61-36 89 0 53 116 60 194h-32v-121c2-32-8-49-39-48" id="av"/><path fill="#333" d="M101-234c-31-9-42 10-38 44h38v23H63V0H32v-167H5v-23h27c-7-52 17-82 69-68v24" id="aw"/><g id="p"><use transform="matrix(0.05,0,0,0.05,0,0)" xlink:href="#at"/><use transform="matrix(0.05,0,0,0.05,9,0)" xlink:href="#av"/><use transform="matrix(0.05,0,0,0.05,19,0)" xlink:href="#ae"/><use transform="matrix(0.05,0,0,0.05,29,0)" xlink:href="#aw"/></g><path fill="#333" d="M140-251c81 0 123 46 123 126C263-46 219 4 140 4 59 4 17-45 17-125s42-126 123-126zm0 227c63 0 89-41 89-101s-29-99-89-99c-61 0-89 39-89 99S79-25 140-24" id="ax"/><path fill="#333" d="M9 0v-24l116-142H16v-24h144v24L44-24h123V0H9" id="ay"/><g id="q"><use transform="matrix(0.05,0,0,0.05,0,0)" xlink:href="#ax"/><use transform="matrix(0.05,0,0,0.05,14,0)" xlink:href="#aj"/><use transform="matrix(0.05,0,0,0.05,23,0)" xlink:href="#ae"/><use transform="matrix(0.05,0,0,0.05,33,0)" xlink:href="#an"/><use transform="matrix(0.05,0,0,0.05,38.95,0)" xlink:href="#ay"/><use transform="matrix(0.05,0,0,0.05,47.95,0)" xlink:href="#am"/><use transform="matrix(0.05,0,0,0.05,51.900000000000006,0)" xlink:href="#at"/><use transform="matrix(0.05,0,0,0.05,60.900000000000006,0)" xlink:href="#av"/><use transform="matrix(0.05,0,0,0.05,70.9,0)" xlink:href="#aq"/></g><g id="r"><use transform="matrix(0.05,0,0,0.05,0,0)" xlink:href="#af"/><use transform="matrix(0.05,0,0,0.05,14.950000000000001,0)" xlink:href="#ae"/><use transform="matrix(0.05,0,0,0.05,24.950000000000003,0)" xlink:href="#ab"/><use transform="matrix(0.05,0,0,0.05,34.95,0)" xlink:href="#ag"/></g><g id="s"><use transform="matrix(0.05,0,0,0.05,0,0)" xlink:href="#am"/><use transform="matrix(0.05,0,0,0.05,3.95,0)" xlink:href="#aq"/><use transform="matrix(0.05,0,0,0.05,8.95,0)" xlink:href="#ae"/><use transform="matrix(0.05,0,0,0.05,18.95,0)" xlink:href="#af"/><use transform="matrix(0.05,0,0,0.05,33.9,0)" xlink:href="#ad"/></g><g id="t"><use transform="matrix(0.05,0,0,0.05,0,0)" xlink:href="#ax"/><use transform="matrix(0.05,0,0,0.05,14,0)" xlink:href="#aj"/><use transform="matrix(0.05,0,0,0.05,23,0)" xlink:href="#ae"/><use transform="matrix(0.05,0,0,0.05,33,0)" xlink:href="#an"/><use transform="matrix(0.05,0,0,0.05,38.95,0)" xlink:href="#ay"/><use transform="matrix(0.05,0,0,0.05,47.95,0)" xlink:href="#am"/><use transform="matrix(0.05,0,0,0.05,51.900000000000006,0)" xlink:href="#at"/><use transform="matrix(0.05,0,0,0.05,60.900000000000006,0)" xlink:href="#av"/><use transform="matrix(0.05,0,0,0.05,70.9,0)" xlink:href="#aq"/></g><g id="u"><use transform="matrix(0.05,0,0,0.05,0,0)" xlink:href="#av"/><use transform="matrix(0.05,0,0,0.05,10,0)" xlink:href="#ag"/><use transform="matrix(0.05,0,0,0.05,20,0)" xlink:href="#am"/><use transform="matrix(0.05,0,0,0.05,23.95,0)" xlink:href="#ao"/><use transform="matrix(0.05,0,0,0.05,33.95,0)" xlink:href="#am"/><use transform="matrix(0.05,0,0,0.05,37.900000000000006,0)" xlink:href="#ak"/><use transform="matrix(0.05,0,0,0.05,47.900000000000006,0)" xlink:href="#ae"/></g><g id="v"><use transform="matrix(0.05,0,0,0.05,0,0)" xlink:href="#am"/><use transform="matrix(0.05,0,0,0.05,3.95,0)" xlink:href="#ab"/><use transform="matrix(0.05,0,0,0.05,13.949999999999998,0)" xlink:href="#ak"/><use transform="matrix(0.05,0,0,0.05,23.95,0)" xlink:href="#an"/><use transform="matrix(0.05,0,0,0.05,29.899999999999995,0)" xlink:href="#ae"/><use transform="matrix(0.05,0,0,0.05,39.9,0)" xlink:href="#ao"/><use transform="matrix(0.05,0,0,0.05,49.9,0)" xlink:href="#am"/><use transform="matrix(0.05,0,0,0.05,53.85,0)" xlink:href="#ap"/><use transform="matrix(0.05,0,0,0.05,63.85,0)" xlink:href="#ab"/><use transform="matrix(0.05,0,0,0.05,73.85,0)" xlink:href="#aq"/><use transform="matrix(0.05,0,0,0.05,78.85,0)" xlink:href="#ae"/><use transform="matrix(0.05,0,0,0.05,88.85,0)" xlink:href="#ab"/></g><path fill="#999" d="M76-208v77h127v40H76V0H24v-248h183v40H76" id="az"/><path fill="#999" d="M24 0v-248h52v208h133V0H24" id="aA"/><path fill="#999" d="M140-251c80 0 125 45 125 126S219 4 139 4C58 4 15-44 15-125s44-126 125-126zm-1 214c52 0 73-35 73-88 0-50-21-86-72-86-52 0-73 35-73 86s22 88 72 88" id="aB"/><path fill="#999" d="M275 0h-61l-44-196L126 0H64L0-248h53L97-49l45-199h58l43 199 44-199h52" id="aC"/><path fill="#999" d="M67-125c0 53 21 87 73 88 37 1 54-22 65-47l45 17C233-25 199 4 140 4 58 4 20-42 15-125 8-235 124-281 211-232c18 10 29 29 36 50l-46 12c-8-25-30-41-62-41-52 0-71 34-72 86" id="aD"/><path fill="#999" d="M186 0v-106H76V0H24v-248h52v99h110v-99h50V0h-50" id="aE"/><path fill="#999" d="M199 0l-22-63H83L61 0H9l90-248h61L250 0h-51zm-33-102l-36-108c-10 38-24 72-36 108h72" id="aF"/><path fill="#999" d="M240-174c0 40-23 61-54 70L253 0h-59l-57-94H76V0H24v-248c93 4 217-23 216 74zM76-134c48-2 112 12 112-38 0-48-66-32-112-35v73" id="aG"/><path fill="#999" d="M136-208V0H84v-208H4v-40h212v40h-80" id="aH"/><g id="w"><use transform="matrix(0.09876543209876544,0,0,0.09876543209876544,0,0)" xlink:href="#az"/><use transform="matrix(0.09876543209876544,0,0,0.09876543209876544,21.62962962962963,0)" xlink:href="#aA"/><use transform="matrix(0.09876543209876544,0,0,0.09876543209876544,43.25925925925926,0)" xlink:href="#aB"/><use transform="matrix(0.09876543209876544,0,0,0.09876543209876544,70.91358024691358,0)" xlink:href="#aC"/><use transform="matrix(0.09876543209876544,0,0,0.09876543209876544,104.39506172839508,0)" xlink:href="#aD"/><use transform="matrix(0.09876543209876544,0,0,0.09876543209876544,129.97530864197532,0)" xlink:href="#aE"/><use transform="matrix(0.09876543209876544,0,0,0.09876543209876544,155.55555555555557,0)" xlink:href="#aF"/><use transform="matrix(0.09876543209876544,0,0,0.09876543209876544,181.13580246913583,0)" xlink:href="#aG"/><use transform="matrix(0.09876543209876544,0,0,0.09876543209876544,206.71604938271608,0)" xlink:href="#aH"/></g><path fill="#999" d="M24 0v-248h195v40H76v63h132v40H76v65h150V0H24" id="aI"/><g id="x"><use transform="matrix(0.09876543209876544,0,0,0.09876543209876544,0,0)" xlink:href="#aD"/><use transform="matrix(0.09876543209876544,0,0,0.09876543209876544,25.58024691358025,0)" xlink:href="#aE"/><use transform="matrix(0.09876543209876544,0,0,0.09876543209876544,51.1604938271605,0)" xlink:href="#aI"/><use transform="matrix(0.09876543209876544,0,0,0.09876543209876544,74.8641975308642,0)" xlink:href="#az"/></g><path fill="#999" d="M212-179c-10-28-35-45-73-45-59 0-87 40-87 99 0 60 29 101 89 101 43 0 62-24 78-52l27 14C228-24 195 4 139 4 59 4 22-46 18-125c-6-104 99-153 187-111 19 9 31 26 39 46" id="aJ"/><path fill="#999" d="M141-36C126-15 110 5 73 4 37 3 15-17 15-53c-1-64 63-63 125-63 3-35-9-54-41-54-24 1-41 7-42 31l-33-3c5-37 33-52 76-52 45 0 72 20 72 64v82c-1 20 7 32 28 27v20c-31 9-61-2-59-35zM48-53c0 20 12 33 32 33 41-3 63-29 60-74-43 2-92-5-92 41" id="aK"/><path fill="#999" d="M115-194c55 1 70 41 70 98S169 2 115 4C84 4 66-9 55-30l1 105H24l-1-265h31l2 30c10-21 28-34 59-34zm-8 174c40 0 45-34 45-75s-6-73-45-74c-42 0-51 32-51 76 0 43 10 73 51 73" id="aL"/><path fill="#999" d="M177-190C167-65 218 103 67 71c-23-6-38-20-44-43l32-5c15 47 100 32 89-28v-30C133-14 115 1 83 1 29 1 15-40 15-95c0-56 16-97 71-98 29-1 48 16 59 35 1-10 0-23 2-32h30zM94-22c36 0 50-32 50-73 0-42-14-75-50-75-39 0-46 34-46 75s6 73 46 73" id="aM"/><path fill="#999" d="M100-194c63 0 86 42 84 106H49c0 40 14 67 53 68 26 1 43-12 49-29l28 8c-11 28-37 45-77 45C44 4 14-33 15-96c1-61 26-98 85-98zm52 81c6-60-76-77-97-28-3 7-6 17-6 28h103" id="aN"/><path fill="#999" d="M210-169c-67 3-38 105-44 169h-31v-121c0-29-5-50-35-48C34-165 62-65 56 0H25l-1-190h30c1 10-1 24 2 32 10-44 99-50 107 0 11-21 27-35 58-36 85-2 47 119 55 194h-31v-121c0-29-5-49-35-48" id="aO"/><path fill="#999" d="M24-231v-30h32v30H24zM24 0v-190h32V0H24" id="aP"/><path fill="#999" d="M117-194c89-4 53 116 60 194h-32v-121c0-31-8-49-39-48C34-167 62-67 57 0H25l-1-190h30c1 10-1 24 2 32 11-22 29-35 61-36" id="aQ"/><g id="y"><use transform="matrix(0.06172839506172778,0,0,0.06172839506172778,0,0)" xlink:href="#aJ"/><use transform="matrix(0.06172839506172778,0,0,0.06172839506172778,15.987654320987495,0)" xlink:href="#aK"/><use transform="matrix(0.06172839506172778,0,0,0.06172839506172778,28.33333333333305,0)" xlink:href="#aL"/><use transform="matrix(0.06172839506172778,0,0,0.06172839506172778,40.67901234567861,0)" xlink:href="#aM"/><use transform="matrix(0.06172839506172778,0,0,0.06172839506172778,53.024691358024164,0)" xlink:href="#aN"/><use transform="matrix(0.06172839506172778,0,0,0.06172839506172778,65.37037037036973,0)" xlink:href="#aO"/><use transform="matrix(0.06172839506172778,0,0,0.06172839506172778,83.82716049382634,0)" xlink:href="#aP"/><use transform="matrix(0.06172839506172778,0,0,0.06172839506172778,88.70370370370284,0)" xlink:href="#aQ"/><use transform="matrix(0.06172839506172778,0,0,0.06172839506172778,101.0493827160484,0)" xlink:href="#aP"/></g><path fill="#999" d="M32 76v-337h29V76H32" id="aR"/><use transform="matrix(0.06172839506172778,0,0,0.06172839506172778,0,0)" xlink:href="#aR" id="z"/><path fill="#999" d="M27 0v-27h64v-190l-56 39v-29l58-41h29v221h61V0H27" id="aS"/><path fill="#999" d="M155-56V0h-30v-56H8v-25l114-167h33v167h35v25h-35zm-30-156c-27 46-58 90-88 131h88v-131" id="aT"/><g id="A"><use transform="matrix(0.06172839506172778,0,0,0.06172839506172778,0,0)" xlink:href="#aS"/><use transform="matrix(0.06172839506172778,0,0,0.06172839506172778,12.345679012345556,0)" xlink:href="#aT"/></g><path fill="#999" d="M185-189c-5-48-123-54-124 2 14 75 158 14 163 119 3 78-121 87-175 55-17-10-28-26-33-46l33-7c5 56 141 63 141-1 0-78-155-14-162-118-5-82 145-84 179-34 5 7 8 16 11 25" id="aU"/><path fill="#999" d="M59-47c-2 24 18 29 38 22v24C64 9 27 4 27-40v-127H5v-23h24l9-43h21v43h35v23H59v120" id="aV"/><path fill="#999" d="M115-194c53 0 69 39 70 98 0 66-23 100-70 100C84 3 66-7 56-30L54 0H23l1-261h32v101c10-23 28-34 59-34zm-8 174c40 0 45-34 45-75 0-40-5-75-45-74-42 0-51 32-51 76 0 43 10 73 51 73" id="aW"/><path fill="#999" d="M114-163C36-179 61-72 57 0H25l-1-190h30c1 12-1 29 2 39 6-27 23-49 58-41v29" id="aX"/><g id="B"><use transform="matrix(0.06172839506172778,0,0,0.06172839506172778,0,0)" xlink:href="#aU"/><use transform="matrix(0.06172839506172778,0,0,0.06172839506172778,14.814814814814667,0)" xlink:href="#aN"/><use transform="matrix(0.06172839506172778,0,0,0.06172839506172778,27.160493827160224,0)" xlink:href="#aL"/><use transform="matrix(0.06172839506172778,0,0,0.06172839506172778,39.50617283950578,0)" xlink:href="#aV"/><use transform="matrix(0.06172839506172778,0,0,0.06172839506172778,45.67901234567856,0)" xlink:href="#aN"/><use transform="matrix(0.06172839506172778,0,0,0.06172839506172778,58.024691358024114,0)" xlink:href="#aO"/><use transform="matrix(0.06172839506172778,0,0,0.06172839506172778,76.48148148148073,0)" xlink:href="#aW"/><use transform="matrix(0.06172839506172778,0,0,0.06172839506172778,88.82716049382628,0)" xlink:href="#aN"/><use transform="matrix(0.06172839506172778,0,0,0.06172839506172778,101.17283950617184,0)" xlink:href="#aX"/></g><path fill="#999" d="M101-251c82-7 93 87 43 132L82-64C71-53 59-42 53-27h129V0H18c2-99 128-94 128-182 0-28-16-43-45-43s-46 15-49 41l-32-3c6-41 34-60 81-64" id="aY"/><path fill="#999" d="M101-251c68 0 85 55 85 127S166 4 100 4C33 4 14-52 14-124c0-73 17-127 87-127zm-1 229c47 0 54-49 54-102s-4-102-53-102c-51 0-55 48-55 102 0 53 5 102 54 102" id="aZ"/><path fill="#999" d="M134-131c28 9 52 24 51 62-1 50-34 73-85 73S17-19 16-69c0-36 21-54 49-61-75-25-45-126 34-121 46 3 78 18 79 63 0 33-17 51-44 57zm-34-11c31 1 46-15 46-44 0-28-17-43-47-42-29 0-46 13-45 42 1 28 16 44 46 44zm1 122c35 0 51-18 51-52 0-30-18-46-53-46-33 0-51 17-51 47 0 34 19 51 53 51" id="ba"/><g id="C"><use transform="matrix(0.06172839506172778,0,0,0.06172839506172778,0,0)" xlink:href="#aY"/><use transform="matrix(0.06172839506172778,0,0,0.06172839506172778,12.345679012345556,0)" xlink:href="#aZ"/><use transform="matrix(0.06172839506172778,0,0,0.06172839506172778,24.691358024691112,0)" xlink:href="#aS"/><use transform="matrix(0.06172839506172778,0,0,0.06172839506172778,37.03703703703667,0)" xlink:href="#ba"/></g><g id="D"><use transform="matrix(0.05,0,0,0.05,0,0)" xlink:href="#ax"/><use transform="matrix(0.05,0,0,0.05,14,0)" xlink:href="#aj"/><use transform="matrix(0.05,0,0,0.05,23,0)" xlink:href="#ae"/><use transform="matrix(0.05,0,0,0.05,33,0)" xlink:href="#an"/><use transform="matrix(0.05,0,0,0.05,38.95,0)" xlink:href="#ay"/><use transform="matrix(0.05,0,0,0.05,47.95,0)" xlink:href="#am"/><use transform="matrix(0.05,0,0,0.05,51.900000000000006,0)" xlink:href="#at"/><use transform="matrix(0.05,0,0,0.05,60.900000000000006,0)" xlink:href="#av"/><use transform="matrix(0.05,0,0,0.05,70.9,0)" xlink:href="#aq"/></g><g id="E"><use transform="matrix(0.05,0,0,0.05,0,0)" xlink:href="#ad"/><use transform="matrix(0.05,0,0,0.05,9,0)" xlink:href="#ac"/><use transform="matrix(0.05,0,0,0.05,19,0)" xlink:href="#ae"/><use transform="matrix(0.05,0,0,0.05,29,0)" xlink:href="#at"/><use transform="matrix(0.05,0,0,0.05,38,0)" xlink:href="#am"/><use transform="matrix(0.05,0,0,0.05,41.95,0)" xlink:href="#aw"/><use transform="matrix(0.05,0,0,0.05,46.95,0)" xlink:href="#am"/><use transform="matrix(0.05,0,0,0.05,50.900000000000006,0)" xlink:href="#ae"/><use transform="matrix(0.05,0,0,0.05,60.900000000000006,0)" xlink:href="#al"/></g><g id="F"><use transform="matrix(0.05,0,0,0.05,0,0)" xlink:href="#af"/><use transform="matrix(0.05,0,0,0.05,14.950000000000001,0)" xlink:href="#ae"/><use transform="matrix(0.05,0,0,0.05,24.950000000000003,0)" xlink:href="#ab"/><use transform="matrix(0.05,0,0,0.05,34.95,0)" xlink:href="#ag"/></g><path fill="#333" d="M160-131c35 5 61 23 61 61C221 17 115-2 30 0v-248c76 3 177-17 177 60 0 33-19 50-47 57zm-97-11c50-1 110 9 110-42 0-47-63-36-110-37v79zm0 115c55-2 124 14 124-45 0-56-70-42-124-44v89" id="bb"/><g id="G"><use transform="matrix(0.05,0,0,0.05,0,0)" xlink:href="#bb"/><use transform="matrix(0.05,0,0,0.05,12,0)" xlink:href="#ae"/><use transform="matrix(0.05,0,0,0.05,22,0)" xlink:href="#aj"/><use transform="matrix(0.05,0,0,0.05,31,0)" xlink:href="#ae"/><use transform="matrix(0.05,0,0,0.05,41,0)" xlink:href="#ad"/><use transform="matrix(0.05,0,0,0.05,50,0)" xlink:href="#aq"/><use transform="matrix(0.05,0,0,0.05,55,0)" xlink:href="#am"/><use transform="matrix(0.05,0,0,0.05,58.95,0)" xlink:href="#ak"/><use transform="matrix(0.05,0,0,0.05,68.95,0)" xlink:href="#am"/><use transform="matrix(0.05,0,0,0.05,72.9,0)" xlink:href="#ab"/><use transform="matrix(0.05,0,0,0.05,82.9,0)" xlink:href="#ak"/></g><g id="H"><use transform="matrix(0.05,0,0,0.05,0,0)" xlink:href="#aj"/><use transform="matrix(0.05,0,0,0.05,9,0)" xlink:href="#aa"/><use transform="matrix(0.05,0,0,0.05,19,0)" xlink:href="#ab"/></g><g id="I"><use transform="matrix(0.05,0,0,0.05,0,0)" xlink:href="#aa"/><use transform="matrix(0.05,0,0,0.05,10,0)" xlink:href="#at"/><use transform="matrix(0.05,0,0,0.05,19,0)" xlink:href="#aq"/><use transform="matrix(0.05,0,0,0.05,24,0)" xlink:href="#am"/><use transform="matrix(0.05,0,0,0.05,27.950000000000003,0)" xlink:href="#ae"/></g><path fill="#333" d="M137 0h-34L2-248h35l83 218 83-218h36" id="bc"/><path fill="#333" d="M206 0h-36l-40-164L89 0H53L-1-190h32L70-26l43-164h34l41 164 42-164h31" id="bd"/><path fill="#333" d="M24-231v-30h32v30H24zM-9 49c24 4 33-6 33-30v-209h32V24c2 40-23 58-65 49V49" id="be"/><g id="K"><use transform="matrix(0.05,0,0,0.05,0,0)" xlink:href="#bc"/><use transform="matrix(0.05,0,0,0.05,11,0)" xlink:href="#ae"/><use transform="matrix(0.05,0,0,0.05,21,0)" xlink:href="#an"/><use transform="matrix(0.05,0,0,0.05,26.950000000000003,0)" xlink:href="#bd"/><use transform="matrix(0.05,0,0,0.05,39.9,0)" xlink:href="#am"/><use transform="matrix(0.05,0,0,0.05,43.85,0)" xlink:href="#be"/><use transform="matrix(0.05,0,0,0.05,47.800000000000004,0)" xlink:href="#ao"/><use transform="matrix(0.05,0,0,0.05,57.800000000000004,0)" xlink:href="#ae"/><use transform="matrix(0.05,0,0,0.05,67.80000000000001,0)" xlink:href="#an"/><use transform="matrix(0.05,0,0,0.05,73.75000000000001,0)" xlink:href="#ae"/><use transform="matrix(0.05,0,0,0.05,83.75000000000001,0)" xlink:href="#ab"/></g><g id="L"><use transform="matrix(0.05,0,0,0.05,0,0)" xlink:href="#am"/><use transform="matrix(0.05,0,0,0.05,3.95,0)" xlink:href="#ab"/><use transform="matrix(0.05,0,0,0.05,13.949999999999998,0)" xlink:href="#ak"/><use transform="matrix(0.05,0,0,0.05,23.95,0)" xlink:href="#an"/><use transform="matrix(0.05,0,0,0.05,29.899999999999995,0)" xlink:href="#ae"/><use transform="matrix(0.05,0,0,0.05,39.9,0)" xlink:href="#ao"/><use transform="matrix(0.05,0,0,0.05,49.9,0)" xlink:href="#am"/><use transform="matrix(0.05,0,0,0.05,53.85,0)" xlink:href="#ap"/><use transform="matrix(0.05,0,0,0.05,63.85,0)" xlink:href="#ab"/><use transform="matrix(0.05,0,0,0.05,73.85,0)" xlink:href="#aq"/></g><g id="M"><use transform="matrix(0.05,0,0,0.05,0,0)" xlink:href="#ah"/><use transform="matrix(0.05,0,0,0.05,8.950000000000001,0)" xlink:href="#ai"/><use transform="matrix(0.05,0,0,0.05,18.950000000000003,0)" xlink:href="#ae"/><use transform="matrix(0.05,0,0,0.05,28.950000000000003,0)" xlink:href="#aj"/><use transform="matrix(0.05,0,0,0.05,37.95,0)" xlink:href="#ai"/><use transform="matrix(0.05,0,0,0.05,47.95,0)" xlink:href="#ae"/><use transform="matrix(0.05,0,0,0.05,57.95,0)" xlink:href="#ak"/><use transform="matrix(0.05,0,0,0.05,67.95,0)" xlink:href="#ae"/><use transform="matrix(0.05,0,0,0.05,77.95,0)" xlink:href="#ab"/></g><g id="N"><use transform="matrix(0.05,0,0,0.05,0,0)" xlink:href="#Z"/><use transform="matrix(0.05,0,0,0.05,12,0)" xlink:href="#aa"/><use transform="matrix(0.05,0,0,0.05,22,0)" xlink:href="#ab"/><use transform="matrix(0.05,0,0,0.05,32,0)" xlink:href="#ac"/><use transform="matrix(0.05,0,0,0.05,42,0)" xlink:href="#aa"/><use transform="matrix(0.05,0,0,0.05,52,0)" xlink:href="#ad"/><use transform="matrix(0.05,0,0,0.05,61,0)" xlink:href="#ad"/><use transform="matrix(0.05,0,0,0.05,70,0)" xlink:href="#ae"/><use transform="matrix(0.05,0,0,0.05,80,0)" xlink:href="#ab"/></g><path fill="#333" d="M266 0h-40l-56-210L115 0H75L2-248h35L96-30l15-64 43-154h32l59 218 59-218h35" id="bf"/><g id="O"><use transform="matrix(0.05,0,0,0.05,0,0)" xlink:href="#bf"/><use transform="matrix(0.05,0,0,0.05,16.95,0)" xlink:href="#am"/><use transform="matrix(0.05,0,0,0.05,20.9,0)" xlink:href="#be"/><use transform="matrix(0.05,0,0,0.05,24.849999999999998,0)" xlink:href="#ay"/><use transform="matrix(0.05,0,0,0.05,33.849999999999994,0)" xlink:href="#am"/><use transform="matrix(0.05,0,0,0.05,37.8,0)" xlink:href="#ak"/><use transform="matrix(0.05,0,0,0.05,47.8,0)" xlink:href="#ae"/><use transform="matrix(0.05,0,0,0.05,57.79999999999999,0)" xlink:href="#ab"/></g><g id="P"><use transform="matrix(0.05,0,0,0.05,0,0)" xlink:href="#am"/><use transform="matrix(0.05,0,0,0.05,3.95,0)" xlink:href="#aq"/><use transform="matrix(0.05,0,0,0.05,8.95,0)" xlink:href="#ae"/><use transform="matrix(0.05,0,0,0.05,18.95,0)" xlink:href="#af"/></g><g id="Q"><use transform="matrix(0.05,0,0,0.05,0,0)" xlink:href="#aj"/><use transform="matrix(0.05,0,0,0.05,9,0)" xlink:href="#ae"/><use transform="matrix(0.05,0,0,0.05,19,0)" xlink:href="#an"/><use transform="matrix(0.05,0,0,0.05,24.95,0)" xlink:href="#bd"/><use transform="matrix(0.05,0,0,0.05,37.9,0)" xlink:href="#am"/><use transform="matrix(0.05,0,0,0.05,41.85,0)" xlink:href="#be"/><use transform="matrix(0.05,0,0,0.05,45.800000000000004,0)" xlink:href="#ao"/><use transform="matrix(0.05,0,0,0.05,55.800000000000004,0)" xlink:href="#ae"/><use transform="matrix(0.05,0,0,0.05,65.80000000000001,0)" xlink:href="#an"/><use transform="matrix(0.05,0,0,0.05,71.75000000000001,0)" xlink:href="#ao"/></g><g id="R"><use transform="matrix(0.05,0,0,0.05,0,0)" xlink:href="#bc"/><use transform="matrix(0.05,0,0,0.05,11,0)" xlink:href="#ae"/><use transform="matrix(0.05,0,0,0.05,21,0)" xlink:href="#an"/><use transform="matrix(0.05,0,0,0.05,26.950000000000003,0)" xlink:href="#bd"/><use transform="matrix(0.05,0,0,0.05,39.9,0)" xlink:href="#am"/><use transform="matrix(0.05,0,0,0.05,43.85,0)" xlink:href="#be"/><use transform="matrix(0.05,0,0,0.05,47.800000000000004,0)" xlink:href="#ao"/><use transform="matrix(0.05,0,0,0.05,57.800000000000004,0)" xlink:href="#ae"/><use transform="matrix(0.05,0,0,0.05,67.80000000000001,0)" xlink:href="#an"/><use transform="matrix(0.05,0,0,0.05,73.75000000000001,0)" xlink:href="#ae"/><use transform="matrix(0.05,0,0,0.05,83.75000000000001,0)" xlink:href="#ab"/></g><g id="S"><use transform="matrix(0.05,0,0,0.05,0,0)" xlink:href="#af"/><use transform="matrix(0.05,0,0,0.05,14.950000000000001,0)" xlink:href="#ae"/><use transform="matrix(0.05,0,0,0.05,24.950000000000003,0)" xlink:href="#ab"/><use transform="matrix(0.05,0,0,0.05,34.95,0)" xlink:href="#ag"/></g><g id="T"><use transform="matrix(0.05,0,0,0.05,0,0)" xlink:href="#am"/><use transform="matrix(0.05,0,0,0.05,3.95,0)" xlink:href="#aq"/><use transform="matrix(0.05,0,0,0.05,8.95,0)" xlink:href="#ae"/><use transform="matrix(0.05,0,0,0.05,18.95,0)" xlink:href="#af"/></g><g id="U"><use transform="matrix(0.05,0,0,0.05,0,0)" xlink:href="#am"/><use transform="matrix(0.05,0,0,0.05,3.95,0)" xlink:href="#ab"/><use transform="matrix(0.05,0,0,0.05,13.949999999999998,0)" xlink:href="#ak"/><use transform="matrix(0.05,0,0,0.05,23.95,0)" xlink:href="#an"/><use transform="matrix(0.05,0,0,0.05,29.899999999999995,0)" xlink:href="#ae"/><use transform="matrix(0.05,0,0,0.05,39.9,0)" xlink:href="#ao"/><use transform="matrix(0.05,0,0,0.05,49.9,0)" xlink:href="#am"/><use transform="matrix(0.05,0,0,0.05,53.85,0)" xlink:href="#ap"/><use transform="matrix(0.05,0,0,0.05,63.85,0)" xlink:href="#ab"/><use transform="matrix(0.05,0,0,0.05,73.85,0)" xlink:href="#aq"/></g><g id="V"><use transform="matrix(0.05,0,0,0.05,0,0)" xlink:href="#bf"/><use transform="matrix(0.05,0,0,0.05,16.95,0)" xlink:href="#am"/><use transform="matrix(0.05,0,0,0.05,20.9,0)" xlink:href="#be"/><use transform="matrix(0.05,0,0,0.05,24.849999999999998,0)" xlink:href="#ay"/><use transform="matrix(0.05,0,0,0.05,33.849999999999994,0)" xlink:href="#am"/><use transform="matrix(0.05,0,0,0.05,37.8,0)" xlink:href="#ak"/><use transform="matrix(0.05,0,0,0.05,47.8,0)" xlink:href="#ae"/><use transform="matrix(0.05,0,0,0.05,57.79999999999999,0)" xlink:href="#ab"/></g><g id="W"><use transform="matrix(0.05,0,0,0.05,0,0)" xlink:href="#ax"/><use transform="matrix(0.05,0,0,0.05,14,0)" xlink:href="#aj"/><use transform="matrix(0.05,0,0,0.05,23,0)" xlink:href="#ae"/><use transform="matrix(0.05,0,0,0.05,33,0)" xlink:href="#an"/><use transform="matrix(0.05,0,0,0.05,38.95,0)" xlink:href="#ay"/><use transform="matrix(0.05,0,0,0.05,47.95,0)" xlink:href="#am"/><use transform="matrix(0.05,0,0,0.05,51.900000000000006,0)" xlink:href="#at"/><use transform="matrix(0.05,0,0,0.05,60.900000000000006,0)" xlink:href="#av"/><use transform="matrix(0.05,0,0,0.05,70.9,0)" xlink:href="#aq"/></g><g id="X"><use transform="matrix(0.05,0,0,0.05,0,0)" xlink:href="#ad"/><use transform="matrix(0.05,0,0,0.05,9,0)" xlink:href="#ac"/><use transform="matrix(0.05,0,0,0.05,19,0)" xlink:href="#ae"/><use transform="matrix(0.05,0,0,0.05,29,0)" xlink:href="#at"/><use transform="matrix(0.05,0,0,0.05,38,0)" xlink:href="#am"/><use transform="matrix(0.05,0,0,0.05,41.95,0)" xlink:href="#aw"/><use transform="matrix(0.05,0,0,0.05,46.95,0)" xlink:href="#am"/><use transform="matrix(0.05,0,0,0.05,50.900000000000006,0)" xlink:href="#ae"/><use transform="matrix(0.05,0,0,0.05,60.900000000000006,0)" xlink:href="#al"/></g><g id="Y"><use transform="matrix(0.05,0,0,0.05,0,0)" xlink:href="#Z"/><use transform="matrix(0.05,0,0,0.05,12,0)" xlink:href="#aa"/><use transform="matrix(0.05,0,0,0.05,22,0)" xlink:href="#ab"/><use transform="matrix(0.05,0,0,0.05,32,0)" xlink:href="#ac"/><use transform="matrix(0.05,0,0,0.05,42,0)" xlink:href="#aa"/><use transform="matrix(0.05,0,0,0.05,52,0)" xlink:href="#ad"/><use transform="matrix(0.05,0,0,0.05,61,0)" xlink:href="#ad"/><use transform="matrix(0.05,0,0,0.05,70,0)" xlink:href="#ae"/><use transform="matrix(0.05,0,0,0.05,80,0)" xlink:href="#ab"/></g></defs></g></svg>